<?xml version="1.0" encoding="utf-8"?>
<!-- Generator: Adobe Illustrator 16.0.0, SVG Export Plug-In . SVG Version: 6.00 Build 0)  -->
<!DOCTYPE svg PUBLIC "-//W3C//DTD SVG 1.1//EN" "http://www.w3.org/Graphics/SVG/1.1/DTD/svg11.dtd">
<svg version="1.1" id="Layer_1" xmlns="http://www.w3.org/2000/svg" xmlns:xlink="http://www.w3.org/1999/xlink" x="0px" y="0px"
	 width="200px" height="200px" viewBox="0 0 200 200" enable-background="new 0 0 200 200" xml:space="preserve">
<path fill-rule="evenodd" clip-rule="evenodd" fill="#181616" d="M99.995,15.1C53.06,15.1,15,53.154,15,100.102
	c0,37.552,24.351,69.411,58.136,80.654c4.244,0.779,5.804-1.848,5.804-4.098c0-2.02-0.077-7.364-0.122-14.459
	c-23.642,5.139-28.634-11.392-28.634-11.392c-3.86-9.821-9.434-12.436-9.434-12.436c-7.714-5.271,0.581-5.164,0.581-5.164
	c8.532,0.6,13.028,8.758,13.028,8.758c7.576,12.985,19.886,9.239,24.732,7.061c0.773-5.49,2.967-9.236,5.391-11.361
	c-18.868-2.149-38.718-9.439-38.718-42.009c0-9.279,3.319-16.868,8.755-22.809c-0.879-2.15-3.792-10.794,0.834-22.495
	c0,0,7.133-2.286,23.371,8.715c6.782-1.887,14.053-2.83,21.278-2.862c7.217,0.032,14.488,0.976,21.277,2.862
	c16.233-11,23.358-8.715,23.358-8.715c4.634,11.701,1.712,20.345,0.841,22.495c5.45,5.941,8.739,13.53,8.739,22.809
	c0,32.65-19.872,39.837-38.809,41.94c3.05,2.626,5.772,7.812,5.772,15.741c0,11.362-0.1,20.528-0.1,23.32
	c0,2.27,1.52,4.916,5.833,4.086C160.662,169.482,185,137.642,185,100.102C185,53.154,146.939,15.1,99.995,15.1z"/>
</svg>
