<?xml version="1.0" encoding="utf-8"?>
<!-- Generator: Adobe Illustrator 16.0.0, SVG Export Plug-In . SVG Version: 6.00 Build 0)  -->
<!DOCTYPE svg PUBLIC "-//W3C//DTD SVG 1.1//EN" "http://www.w3.org/Graphics/SVG/1.1/DTD/svg11.dtd">
<svg version="1.1" id="Layer_1" xmlns="http://www.w3.org/2000/svg" xmlns:xlink="http://www.w3.org/1999/xlink" x="0px" y="0px"
	 width="200px" height="200px" viewBox="0 0 200 200" enable-background="new 0 0 200 200" xml:space="preserve">
<path d="M99.999,15C53.055,15,15,53.057,15,100c0,46.945,38.055,85,84.999,85C146.943,185,185,146.945,185,100
	C185,53.057,146.943,15,99.999,15z M160.771,72.55c-1.11,1.431-2.217,2.698-3.326,3.802c-1.27,1.113-2.457,2.146-3.563,3.093
	c-1.114,0.954-2.139,1.751-3.096,2.38c0,0.16,0,0.319,0,0.479v0.236v0.236c0.476,10.941-1.149,21.208-4.875,30.792
	c-3.729,9.597-9.079,17.959-16.054,25.095c-6.818,7.135-14.905,12.764-24.254,16.883c-9.358,4.127-19.504,6.185-30.444,6.185
	c-3.804,0-7.564-0.275-11.293-0.834c-3.734-0.558-7.415-1.306-11.054-2.258c-3.494-1.107-6.9-2.38-10.231-3.802
	c-3.331-1.43-6.585-3.094-9.753-4.994c4.598,0.627,8.92,0.671,12.958,0.119c4.054-0.557,7.733-1.469,11.064-2.733
	c3.167-1.271,5.943-2.736,8.321-4.4c2.378-1.666,4.043-3.059,5.001-4.164c-3.022,0-5.909-0.594-8.682-1.787
	c-2.776-1.186-5.273-2.65-7.493-4.396c-2.22-1.903-4.049-3.924-5.474-6.062c-1.43-2.139-2.22-4.242-2.374-6.303
	c1.262,0.319,3.046,0.479,5.351,0.479c2.294,0,4.238-0.398,5.829-1.193c-4.133-1.111-7.533-2.693-10.235-4.754
	c-2.694-2.06-4.833-4.283-6.414-6.668c-1.589-2.373-2.702-4.869-3.33-7.482c-0.634-2.619-0.954-5.116-0.954-7.495
	c0.789,0.638,1.702,1.152,2.733,1.546c1.028,0.394,2.104,0.757,3.216,1.076c1.107,0.155,2.18,0.275,3.206,0.354
	c1.029,0.08,1.945,0.115,2.733,0.115c-2.374-1.426-4.513-3.447-6.418-6.062c-1.902-2.618-3.33-5.509-4.276-8.686
	c-0.958-3.168-1.272-6.573-0.958-10.224c0.32-3.646,1.506-7.29,3.57-10.938c3.335,4.438,7.21,8.362,11.651,11.771
	c4.438,3.412,9.194,6.302,14.267,8.684c5.079,2.374,10.265,4.24,15.58,5.587c5.315,1.348,10.5,2.021,15.581,2.021
	c-0.168-0.949-0.319-1.9-0.473-2.854c-0.168-0.951-0.25-1.979-0.25-3.088c0-3.807,0.722-7.336,2.148-10.587
	c1.423-3.25,3.401-6.062,5.944-8.439c2.373-2.539,5.229-4.521,8.555-5.946c3.331-1.427,6.826-2.142,10.471-2.142
	c1.904,0,3.76,0.202,5.583,0.596c1.826,0.397,3.606,0.992,5.353,1.785c1.584,0.632,3.13,1.464,4.636,2.495
	c1.506,1.033,2.813,2.257,3.924,3.686v-0.237c1.106,0,2.425-0.198,3.929-0.595c1.504-0.396,3.133-0.833,4.875-1.308
	c1.582-0.634,3.09-1.312,4.514-2.021c1.433-0.716,2.619-1.389,3.57-2.021c-0.324,1.426-0.908,2.892-1.785,4.396
	c-0.877,1.507-1.857,2.974-2.977,4.399c-0.945,1.271-2.015,2.46-3.205,3.566c-1.183,1.112-2.266,1.903-3.208,2.383
	c3.005-0.318,5.982-0.956,8.908-1.905c2.935-0.952,4.96-1.743,6.074-2.382C162.913,69.617,161.887,71.123,160.771,72.55z"/>
</svg>
