<?xml version="1.0" encoding="utf-8"?>
<!-- Generator: Adobe Illustrator 16.0.0, SVG Export Plug-In . SVG Version: 6.00 Build 0)  -->
<!DOCTYPE svg PUBLIC "-//W3C//DTD SVG 1.1//EN" "http://www.w3.org/Graphics/SVG/1.1/DTD/svg11.dtd">
<svg version="1.1" id="Layer_1" xmlns="http://www.w3.org/2000/svg" xmlns:xlink="http://www.w3.org/1999/xlink" x="0px" y="0px"
	 width="200px" height="200px" viewBox="0 0 200 200" enable-background="new 0 0 200 200" xml:space="preserve">
<path fill="#3AB1CF" d="M100,14.571c1.424,0,2.863,0.035,4.32,0.095c1.457,0.066,2.896,0.184,4.32,0.34
	c1.421,0.162,2.863,0.343,4.318,0.535s2.865,0.456,4.225,0.778c1.357,0.259,2.717,0.567,4.077,0.921
	c1.356,0.354,2.717,0.743,4.075,1.163c1.36,0.425,2.703,0.875,4.028,1.359c1.326,0.487,2.639,0.986,3.935,1.508
	c1.228,0.516,2.458,1.082,3.686,1.698c1.23,0.617,2.46,1.243,3.692,1.891c1.229,0.647,2.427,1.331,3.589,2.037
	c1.166,0.714,2.332,1.457,3.496,2.235c1.167,0.779,2.28,1.568,3.351,2.377c1.066,0.813,2.134,1.653,3.204,2.528
	c1.066,0.869,2.101,1.78,3.106,2.715c1.001,0.941,1.989,1.896,2.96,2.866c0.97,0.972,1.924,1.958,2.863,2.959
	c0.937,1.005,1.844,2.037,2.719,3.108c0.871,1.067,1.713,2.134,2.521,3.2c0.81,1.067,1.604,2.186,2.381,3.354
	c0.776,1.164,1.52,2.326,2.231,3.494c0.714,1.163,1.391,2.346,2.041,3.545c0.644,1.197,1.275,2.425,1.891,3.686
	c0.614,1.263,1.182,2.507,1.698,3.737c0.518,1.299,1.021,2.608,1.508,3.933c0.484,1.325,0.936,2.668,1.357,4.03
	c0.42,1.359,0.809,2.714,1.165,4.074c0.353,1.362,0.662,2.72,0.922,4.082c0.325,1.355,0.581,2.765,0.776,4.222
	c0.195,1.456,0.372,2.896,0.533,4.317c0.161,1.426,0.275,2.866,0.342,4.323c0.063,1.456,0.096,2.897,0.096,4.317
	c0,1.428-0.032,2.862-0.096,4.317c-0.066,1.456-0.181,2.898-0.342,4.322c-0.161,1.422-0.338,2.864-0.533,4.319
	c-0.195,1.456-0.451,2.867-0.776,4.222c-0.26,1.359-0.569,2.72-0.922,4.081c-0.356,1.359-0.745,2.715-1.165,4.076
	c-0.422,1.357-0.873,2.704-1.357,4.028c-0.486,1.324-0.99,2.639-1.508,3.934c-0.517,1.229-1.084,2.473-1.698,3.736
	c-0.615,1.259-1.247,2.493-1.891,3.686c-0.65,1.199-1.327,2.382-2.041,3.545c-0.712,1.168-1.455,2.33-2.231,3.494
	c-0.777,1.168-1.571,2.286-2.381,3.353c-0.809,1.065-1.65,2.132-2.521,3.199c-0.875,1.072-1.782,2.104-2.719,3.11
	c-0.939,1.002-1.894,1.986-2.863,2.957c-0.971,0.972-1.959,1.927-2.96,2.867c-1.006,0.936-2.04,1.846-3.106,2.716
	c-1.07,0.874-2.138,1.713-3.204,2.526c-1.07,0.811-2.184,1.6-3.351,2.377c-1.164,0.779-2.33,1.522-3.496,2.234
	c-1.162,0.708-2.36,1.392-3.589,2.039c-1.232,0.646-2.462,1.273-3.692,1.89c-1.228,0.616-2.458,1.185-3.686,1.701
	c-1.296,0.519-2.608,1.02-3.935,1.506c-1.325,0.483-2.668,0.935-4.028,1.36c-1.358,0.419-2.719,0.809-4.075,1.162
	c-1.36,0.354-2.72,0.662-4.077,0.92c-1.359,0.324-2.77,0.586-4.225,0.778c-1.455,0.193-2.897,0.375-4.318,0.536
	c-1.425,0.157-2.863,0.272-4.32,0.339c-1.457,0.06-2.896,0.097-4.32,0.097c-1.423,0-2.863-0.037-4.32-0.097
	c-1.457-0.066-2.897-0.182-4.32-0.339c-1.424-0.161-2.862-0.343-4.317-0.536c-1.457-0.192-2.865-0.454-4.227-0.778
	c-1.357-0.258-2.717-0.565-4.077-0.92c-1.356-0.354-2.716-0.743-4.075-1.162c-1.36-0.426-2.704-0.877-4.028-1.36
	c-1.328-0.486-2.638-0.987-3.932-1.506c-1.232-0.517-2.475-1.085-3.738-1.701s-2.491-1.243-3.69-1.89
	c-1.198-0.647-2.376-1.331-3.541-2.039c-1.166-0.712-2.33-1.455-3.497-2.234c-1.167-0.777-2.28-1.566-3.349-2.377
	c-1.068-0.813-2.134-1.652-3.204-2.526c-1.067-0.87-2.103-1.78-3.106-2.716c-1.002-0.94-1.989-1.896-2.96-2.867
	c-0.97-0.971-1.926-1.955-2.863-2.957c-0.938-1.006-1.844-2.038-2.719-3.11c-0.872-1.067-1.713-2.134-2.522-3.199
	c-0.812-1.066-1.603-2.185-2.38-3.353c-0.776-1.164-1.521-2.326-2.231-3.494c-0.714-1.163-1.394-2.346-2.04-3.545
	c-0.648-1.192-1.277-2.427-1.892-3.686c-0.615-1.264-1.183-2.508-1.698-3.736c-0.521-1.295-1.022-2.609-1.506-3.934
	c-0.485-1.324-0.938-2.671-1.359-4.028c-0.422-1.361-0.81-2.717-1.164-4.076c-0.357-1.361-0.666-2.722-0.923-4.081
	c-0.323-1.354-0.581-2.766-0.776-4.222c-0.195-1.455-0.374-2.897-0.533-4.319c-0.162-1.424-0.276-2.866-0.341-4.322
	c-0.064-1.455-0.097-2.89-0.097-4.317c0-1.42,0.033-2.861,0.097-4.317c0.065-1.457,0.179-2.897,0.341-4.323
	c0.159-1.421,0.338-2.862,0.533-4.317c0.195-1.457,0.453-2.867,0.776-4.222c0.258-1.361,0.566-2.72,0.923-4.082
	c0.354-1.36,0.741-2.715,1.164-4.074c0.42-1.361,0.874-2.705,1.359-4.03c0.484-1.325,0.986-2.634,1.506-3.933
	c0.516-1.229,1.083-2.459,1.698-3.687c0.615-1.229,1.244-2.462,1.892-3.69c0.646-1.229,1.326-2.427,2.04-3.59
	c0.71-1.168,1.455-2.33,2.231-3.494c0.777-1.168,1.568-2.287,2.38-3.354c0.809-1.066,1.65-2.133,2.522-3.2
	c0.875-1.071,1.781-2.103,2.719-3.108c0.938-1.001,1.894-1.987,2.863-2.959c0.972-0.97,1.958-1.925,2.96-2.866
	c1.004-0.935,2.04-1.846,3.106-2.715c1.07-0.875,2.136-1.715,3.204-2.528c1.069-0.809,2.183-1.598,3.349-2.377
	c1.167-0.778,2.331-1.521,3.497-2.235c1.165-0.706,2.343-1.39,3.541-2.037c1.199-0.647,2.427-1.273,3.69-1.891
	c1.263-0.617,2.506-1.182,3.738-1.698c1.294-0.522,2.604-1.021,3.932-1.508c1.325-0.485,2.668-0.935,4.028-1.359
	c1.359-0.419,2.719-0.809,4.075-1.163c1.36-0.354,2.72-0.662,4.077-0.921c1.361-0.323,2.77-0.586,4.227-0.778
	c1.455-0.192,2.893-0.374,4.317-0.535c1.423-0.156,2.864-0.274,4.32-0.34C97.137,14.606,98.577,14.571,100,14.571z M100,22.338
	c-10.745,0-20.824,2.037-30.242,6.117C60.345,32.53,52.124,38.082,45.104,45.1c-7.024,7.022-12.572,15.245-16.65,24.66
	c-4.078,9.418-6.116,19.496-6.116,30.24c0,10.744,2.038,20.821,6.116,30.241c4.079,9.414,9.626,17.635,16.65,24.659
	c7.02,7.021,15.241,12.569,24.654,16.644c9.418,4.081,19.497,6.119,30.242,6.119c10.741,0,20.824-2.038,30.241-6.119
	c9.414-4.074,17.632-9.622,24.654-16.644c7.022-7.024,12.574-15.245,16.651-24.659c4.076-9.42,6.115-19.497,6.115-30.241
	c0-10.744-2.039-20.822-6.115-30.24c-4.077-9.415-9.629-17.637-16.651-24.66c-7.022-7.018-15.24-12.569-24.654-16.645
	C120.824,24.375,110.741,22.338,100,22.338z M123.298,51.557c0.648,0.582,1.277,1.199,1.896,1.847
	c0.613,0.646,1.193,1.323,1.744,2.037c0.55,0.712,1.053,1.472,1.506,2.28c0.452,0.813,0.875,1.638,1.262,2.477
	c0.39,0.839,0.742,1.714,1.07,2.62c0.321,0.91,0.579,1.831,0.776,2.77c0.193,0.935,0.337,1.906,0.437,2.913
	c0.097,1.001,0.143,2.023,0.143,3.054c0,1.424-0.08,2.77-0.242,4.028c-0.161,1.265-0.387,2.479-0.677,3.641
	c-0.294,1.168-0.666,2.281-1.117,3.353c-0.454,1.067-1.006,2.083-1.651,3.054c-0.582,0.971-1.214,1.927-1.894,2.867
	c-0.679,0.936-1.405,1.86-2.185,2.767c-0.775,0.904-1.585,1.808-2.428,2.719c-0.841,0.904-1.747,1.81-2.717,2.714
	c-0.776,0.779-1.503,1.509-2.184,2.186c-0.68,0.681-1.327,1.329-1.943,1.941c-0.612,0.618-1.197,1.183-1.746,1.698
	c-0.551,0.522-1.051,0.973-1.504,1.36c-0.391,0.391-0.776,0.795-1.165,1.214c-0.388,0.419-0.76,0.839-1.118,1.265
	c-0.355,0.419-0.662,0.839-0.92,1.259c-0.26,0.425-0.521,0.858-0.779,1.309c-0.19,0.456-0.386,0.91-0.581,1.361
	c-0.193,0.454-0.356,0.925-0.483,1.41c-0.132,0.484-0.261,1.001-0.39,1.552c-0.129,0.553-0.229,1.118-0.292,1.698
	c-0.065,0.582-0.128,1.244-0.195,1.988c-0.062,0.748-0.114,1.559-0.143,2.426c-0.033,0.875-0.084,1.801-0.147,2.771
	c-0.065,0.971-0.097,1.972-0.097,3.009h-9.32c0-1.037,0.015-2.054,0.05-3.059c0.03-1.001,0.064-1.992,0.096-2.963
	c0.033-0.972,0.112-1.893,0.244-2.766c0.129-0.875,0.258-1.699,0.39-2.473c0.127-0.777,0.29-1.522,0.484-2.234
	c0.193-0.714,0.42-1.407,0.678-2.089c0.258-0.678,0.535-1.324,0.827-1.941c0.292-0.612,0.597-1.244,0.922-1.891
	c0.387-0.582,0.776-1.168,1.163-1.75c0.391-0.581,0.795-1.163,1.214-1.744c0.422-0.587,0.89-1.168,1.408-1.749
	c0.518-0.582,1.033-1.164,1.556-1.75c0.516-0.582,1.081-1.164,1.698-1.744c0.613-0.583,1.262-1.199,1.941-1.846
	c0.677-0.646,1.373-1.311,2.085-1.992c0.714-0.679,1.457-1.371,2.232-2.084c0.713-0.646,1.376-1.314,1.993-1.992
	c0.613-0.679,1.213-1.376,1.795-2.088c0.581-0.713,1.132-1.44,1.65-2.184c0.516-0.744,1.001-1.502,1.456-2.281
	c0.453-0.778,0.84-1.587,1.165-2.425c0.321-0.84,0.597-1.7,0.823-2.575c0.227-0.874,0.405-1.759,0.533-2.67
	c0.13-0.904,0.197-1.843,0.197-2.815c0-0.708-0.034-1.422-0.097-2.134c-0.066-0.713-0.179-1.405-0.342-2.088
	c-0.162-0.677-0.338-1.341-0.533-1.987c-0.195-0.646-0.453-1.294-0.776-1.942c-0.26-0.586-0.551-1.168-0.876-1.75
	c-0.321-0.581-0.68-1.133-1.066-1.647c-0.388-0.521-0.794-1.022-1.213-1.508c-0.423-0.485-0.89-0.92-1.407-1.309
	c-0.454-0.456-0.938-0.875-1.457-1.265c-0.519-0.388-1.052-0.743-1.604-1.066c-0.548-0.323-1.131-0.632-1.746-0.921
	c-0.613-0.293-1.245-0.565-1.894-0.829c-0.647-0.257-1.296-0.485-1.942-0.677c-0.646-0.192-1.308-0.338-1.987-0.435
	c-0.681-0.102-1.358-0.182-2.039-0.242c-0.68-0.066-1.376-0.101-2.089-0.101c-1.035,0-2.021,0.035-2.959,0.101
	c-0.938,0.06-1.846,0.192-2.717,0.384c-0.876,0.198-1.732,0.404-2.574,0.633c-0.842,0.227-1.618,0.535-2.33,0.925
	c-0.778,0.324-1.506,0.693-2.184,1.112c-0.68,0.425-1.328,0.859-1.94,1.314c-0.619,0.45-1.198,0.956-1.75,1.502
	c-0.55,0.551-1.084,1.116-1.601,1.698c-0.519,0.582-0.989,1.197-1.409,1.845c-0.422,0.648-0.809,1.325-1.164,2.037
	c-0.358,0.714-0.696,1.442-1.021,2.185c-0.322,0.743-0.615,1.538-0.873,2.382c-0.193,0.773-0.387,1.633-0.583,2.568
	c-0.193,0.94-0.337,1.88-0.437,2.817c-0.096,0.939-0.179,1.845-0.243,2.72c-0.064,0.875-0.064,1.664,0,2.375h-9.317
	c0-1.162,0.047-2.346,0.144-3.543c0.1-1.195,0.243-2.408,0.437-3.641c0.196-1.229,0.439-2.428,0.73-3.59
	c0.29-1.162,0.63-2.266,1.017-3.302c0.325-1.098,0.73-2.134,1.213-3.104c0.487-0.971,0.988-1.912,1.509-2.816
	c0.516-0.906,1.1-1.765,1.745-2.573c0.645-0.809,1.296-1.603,1.944-2.377c0.709-0.714,1.471-1.412,2.28-2.088s1.65-1.31,2.525-1.89
	c0.872-0.588,1.778-1.118,2.719-1.603c0.938-0.485,1.922-0.956,2.96-1.41c1.099-0.384,2.198-0.745,3.3-1.067
	c1.101-0.323,2.248-0.598,3.447-0.825c1.196-0.227,2.427-0.39,3.688-0.485s2.538-0.146,3.835-0.146c1.033,0,2.051,0.051,3.057,0.146
	c1.003,0.095,1.992,0.211,2.963,0.338c0.971,0.132,1.923,0.324,2.86,0.582c0.938,0.263,1.829,0.522,2.671,0.778
	c0.907,0.324,1.779,0.679,2.62,1.067c0.843,0.39,1.668,0.809,2.477,1.265c0.809,0.45,1.585,0.935,2.33,1.456
	C121.857,50.424,122.586,50.975,123.298,51.557z M100.486,134.072c1.551,0,3.007,0.293,4.367,0.875
	c1.36,0.581,2.538,1.374,3.545,2.375c1.001,1.007,1.795,2.186,2.376,3.545c0.585,1.36,0.876,2.816,0.876,4.369
	s-0.291,3.009-0.876,4.368c-0.581,1.359-1.375,2.544-2.376,3.545c-1.007,1.005-2.185,1.794-3.545,2.376
	c-1.36,0.586-2.816,0.874-4.367,0.874c-1.553,0-3.01-0.288-4.37-0.874c-1.36-0.582-2.541-1.371-3.543-2.376
	c-1.004-1.001-1.795-2.186-2.377-3.545s-0.875-2.815-0.875-4.368s0.292-3.009,0.875-4.369c0.583-1.359,1.374-2.538,2.377-3.545
	c1.002-1.001,2.183-1.794,3.543-2.375C97.477,134.365,98.933,134.072,100.486,134.072z"/>
</svg>
