<?xml version="1.0" encoding="utf-8"?>
<!-- Generator: Adobe Illustrator 16.0.0, SVG Export Plug-In . SVG Version: 6.00 Build 0)  -->
<!DOCTYPE svg PUBLIC "-//W3C//DTD SVG 1.1//EN" "http://www.w3.org/Graphics/SVG/1.1/DTD/svg11.dtd">
<svg version="1.1" id="Layer_1" xmlns="http://www.w3.org/2000/svg" xmlns:xlink="http://www.w3.org/1999/xlink" x="0px" y="0px"
	 width="200px" height="200px" viewBox="0 0 200 200" enable-background="new 0 0 200 200" xml:space="preserve">
<g>
	<path fill="#3AB1CF" d="M173.384,19.423c2.188,0,4.108,0.349,5.755,1.028c1.644,0.686,3.146,1.643,4.523,2.878
		c1.365,1.233,2.322,2.743,2.876,4.523c0.546,1.785,0.956,3.635,1.233,5.549l-0.41,119.221c0.27,1.921,0,3.772-0.823,5.548
		c-0.823,1.789-1.787,3.29-2.876,4.524c-1.102,1.232-2.611,2.196-4.523,2.877c-1.923,0.687-3.699,1.028-5.346,1.028h-63.309
		c0.265,0,0.265,0,0,0c-0.277,0-0.351,0-0.205,0c0.133,0,0.133,0,0,0c-0.146,0-0.072,0,0.205,0c-1.101,0-1.994,0.206-2.675,0.616
		c-0.688,0.41-1.438,0.965-2.259,1.646c-0.822,0.685-1.306,1.438-1.44,2.26c-0.143,0.823-0.348,1.646-0.615,2.467l0.41,3.288h-0.41
		l0.41,3.7h-7.81l0.41-6.988c-0.277-1.091-0.482-2.054-0.615-2.877c-0.145-0.823-0.618-1.504-1.441-2.057
		c-0.82-0.547-1.58-1.028-2.262-1.438c-0.687-0.41-1.579-0.616-2.671-0.616c0.269,0,0.34,0,0.205,0c-0.142,0-0.142,0,0,0
		c0.135,0,0.063,0-0.205,0c-0.277,0-0.277,0,0,0h-63.31c-1.646,0-3.431-0.342-5.346-1.028c-1.92-0.681-3.431-1.645-4.522-2.877
		c-1.098-1.234-2.054-2.735-2.877-4.524c-0.823-1.775-1.101-3.627-0.823-5.548l-0.41-119.221c0.268-1.915,0.678-3.765,1.233-5.549
		c0.546-1.78,1.502-3.29,2.877-4.523c1.369-1.235,2.879-2.192,4.522-2.878c1.646-0.68,3.558-1.028,5.756-1.028h62.489
		c1.366,0,2.466,0.071,3.286,0.207c0.823,0.142,1.779,0.482,2.88,1.025c1.091,0.555,1.984,1.101,2.671,1.646
		c0.682,0.553,1.438,1.233,2.261,2.054c0.269-0.82,0.883-1.5,1.852-2.054c0.956-0.545,1.849-1.091,2.672-1.646
		c0.822-0.543,1.778-0.883,2.876-1.025c1.091-0.136,2.057-0.207,2.88-0.207h63.309H173.384z M19.628,152.622
		c-0.277,1.1-0.205,2.055,0.205,2.877c0.413,0.823,0.886,1.511,1.438,2.056c0.546,0.553,1.297,1.028,2.262,1.44
		c0.956,0.41,1.851,0.616,2.674,0.616h63.31c0.823,0,1.707-0.206,2.671-0.616c0.957-0.412,1.71-0.888,2.262-1.44
		c0.546-0.545,1.028-1.232,1.441-2.056c0.41-0.822,0.473-1.777,0.205-2.877l0.41-119.221c-0.277-1.091-0.482-2.056-0.615-2.878
		c-0.145-0.823-0.618-1.574-1.441-2.261c-0.82-0.68-1.58-1.162-2.262-1.438c-0.687-0.27-1.715-0.413-3.081-0.413H26.617
		c-1.375,0-2.403,0.143-3.084,0.413c-0.688,0.276-1.438,0.758-2.262,1.438c-0.82,0.687-1.302,1.438-1.438,2.261
		c-0.142,0.822-0.347,1.787-0.615,2.878L19.628,152.622z M180.372,152.622l0.41-119.221c-0.277-1.091-0.482-2.056-0.618-2.878
		c-0.141-0.823-0.615-1.574-1.438-2.261c-0.82-0.68-1.579-1.162-2.261-1.438c-0.688-0.27-1.716-0.413-3.081-0.413h-62.489
		c-1.376,0-2.404,0.143-3.085,0.413c-0.688,0.276-1.438,0.758-2.259,1.438c-0.822,0.687-1.306,1.438-1.44,2.261
		c-0.143,0.822-0.348,1.787-0.615,2.878l0.41,119.221c-0.278,1.1-0.205,2.055,0.205,2.877c0.413,0.823,0.886,1.511,1.44,2.056
		c0.543,0.553,1.297,1.028,2.259,1.44c0.959,0.41,1.852,0.616,2.675,0.616h63.309c0.823,0,1.707-0.206,2.672-0.616
		c0.955-0.412,1.71-0.888,2.261-1.44c0.546-0.545,1.028-1.232,1.438-2.056C180.577,154.677,180.641,153.722,180.372,152.622z"/>
</g>
</svg>
