<?xml version="1.0" encoding="utf-8"?>
<!-- Generator: Adobe Illustrator 16.0.0, SVG Export Plug-In . SVG Version: 6.00 Build 0)  -->
<!DOCTYPE svg PUBLIC "-//W3C//DTD SVG 1.1//EN" "http://www.w3.org/Graphics/SVG/1.1/DTD/svg11.dtd">
<svg version="1.1" id="Layer_1" xmlns="http://www.w3.org/2000/svg" xmlns:xlink="http://www.w3.org/1999/xlink" x="0px" y="0px"
	 width="200px" height="200px" viewBox="0 0 200 200" enable-background="new 0 0 200 200" xml:space="preserve">
<path fill-rule="evenodd" clip-rule="evenodd" fill="#181616" d="M594.944-189.253c-46.925,0-84.976,38.045-84.976,84.982
	c0,37.542,24.345,69.395,58.122,80.635c4.243,0.779,5.803-1.847,5.803-4.097c0-2.019-0.077-7.362-0.122-14.455
	c-23.636,5.137-28.627-11.39-28.627-11.39c-3.859-9.818-9.432-12.433-9.432-12.433c-7.712-5.271,0.581-5.163,0.581-5.163
	c8.53,0.6,13.025,8.756,13.025,8.756c7.574,12.982,19.881,9.237,24.727,7.06c0.773-5.489,2.966-9.234,5.39-11.359
	c-18.864-2.148-38.709-9.437-38.709-41.999c0-9.277,3.318-16.864,8.753-22.804c-0.879-2.149-3.791-10.792,0.833-22.49
	c0,0,7.132-2.285,23.366,8.713c6.78-1.886,14.05-2.829,21.273-2.861c7.215,0.032,14.485,0.975,21.272,2.861
	c16.229-10.998,23.353-8.713,23.353-8.713c4.633,11.699,1.712,20.341,0.841,22.49c5.449,5.94,8.737,13.526,8.737,22.804
	c0,32.644-19.867,39.828-38.8,41.931c3.05,2.626,5.771,7.812,5.771,15.738c0,11.359-0.1,20.523-0.1,23.314
	c0,2.27,1.52,4.915,5.832,4.085c33.738-11.259,58.07-43.093,58.07-80.624C679.929-151.208,641.877-189.253,594.944-189.253z"/>
<path fill-rule="evenodd" clip-rule="evenodd" d="M99.999,15C53.055,15,15,53.057,15,100c0,46.946,38.055,85,84.999,85
	C146.943,185,185,146.945,185,100C185,53.057,146.943,15,99.999,15z M160.771,72.55c-1.11,1.431-2.216,2.698-3.326,3.802
	c-1.269,1.113-2.457,2.146-3.563,3.093c-1.114,0.954-2.139,1.751-3.096,2.38c0,0.16,0,0.319,0,0.479v0.236v0.236
	c0.475,10.941-1.149,21.209-4.875,30.793c-3.729,9.596-9.079,17.959-16.054,25.094c-6.818,7.135-14.905,12.764-24.253,16.883
	c-9.359,4.127-19.505,6.184-30.445,6.184c-3.804,0-7.564-0.275-11.293-0.834c-3.734-0.557-7.415-1.305-11.054-2.258
	c-3.494-1.107-6.9-2.379-10.231-3.801c-3.331-1.43-6.585-3.094-9.753-4.994c4.598,0.627,8.92,0.67,12.958,0.119
	c4.054-0.557,7.733-1.469,11.064-2.734c3.167-1.27,5.943-2.736,8.321-4.4c2.378-1.666,4.043-3.059,5.001-4.164
	c-3.022,0-5.909-0.594-8.682-1.787c-2.776-1.186-5.273-2.65-7.493-4.396c-2.22-1.904-4.049-3.924-5.474-6.062
	c-1.43-2.139-2.22-4.242-2.374-6.303c1.262,0.32,3.046,0.479,5.351,0.479c2.294,0,4.238-0.398,5.829-1.193
	c-4.133-1.111-7.533-2.693-10.235-4.754c-2.694-2.059-4.833-4.283-6.414-6.668c-1.589-2.373-2.702-4.869-3.33-7.482
	c-0.634-2.619-0.954-5.116-0.954-7.495c0.789,0.638,1.702,1.152,2.733,1.546c1.028,0.394,2.104,0.757,3.216,1.076
	c1.107,0.155,2.18,0.275,3.206,0.354c1.029,0.08,1.945,0.115,2.733,0.115c-2.374-1.426-4.513-3.447-6.418-6.062
	c-1.902-2.618-3.33-5.509-4.276-8.686c-0.958-3.168-1.272-6.573-0.958-10.224c0.32-3.646,1.506-7.29,3.57-10.938
	c3.335,4.438,7.21,8.362,11.651,11.771c4.438,3.412,9.194,6.302,14.267,8.684c5.079,2.374,10.265,4.24,15.58,5.587
	c5.315,1.348,10.5,2.021,15.581,2.021c-0.168-0.949-0.319-1.9-0.473-2.854c-0.168-0.951-0.25-1.979-0.25-3.088
	c0-3.807,0.722-7.336,2.148-10.587c1.423-3.25,3.401-6.062,5.944-8.439c2.373-2.539,5.23-4.521,8.555-5.946
	c3.331-1.427,6.826-2.142,10.471-2.142c1.904,0,3.759,0.202,5.583,0.596c1.826,0.397,3.606,0.992,5.352,1.785
	c1.585,0.632,3.13,1.464,4.636,2.495c1.506,1.033,2.813,2.257,3.924,3.686v-0.237c1.107,0,2.424-0.198,3.928-0.595
	c1.505-0.396,3.133-0.833,4.875-1.308c1.582-0.634,3.09-1.311,4.514-2.021c1.433-0.716,2.62-1.389,3.57-2.021
	c-0.323,1.426-0.908,2.892-1.785,4.396c-0.877,1.507-1.857,2.974-2.976,4.399c-0.946,1.271-2.015,2.46-3.205,3.566
	c-1.183,1.112-2.266,1.903-3.208,2.383c3.004-0.318,5.982-0.956,8.908-1.905c2.935-0.952,4.96-1.743,6.074-2.382
	C162.913,69.617,161.887,71.123,160.771,72.55z"/>
</svg>
