<?xml version="1.0" encoding="utf-8"?>
<!-- Generator: Adobe Illustrator 16.0.0, SVG Export Plug-In . SVG Version: 6.00 Build 0)  -->
<!DOCTYPE svg PUBLIC "-//W3C//DTD SVG 1.1//EN" "http://www.w3.org/Graphics/SVG/1.1/DTD/svg11.dtd">
<svg version="1.1" id="Layer_1" xmlns="http://www.w3.org/2000/svg" xmlns:xlink="http://www.w3.org/1999/xlink" x="0px" y="0px"
	 width="772px" height="400px" viewBox="0 0 772 400" enable-background="new 0 0 772 400" xml:space="preserve">
<g>
	<g>
		<path fill="#00B500" d="M101.936,259.297c-17.083-18.757-26.493-43.072-26.493-68.461c0-23.574,8.249-46.547,23.223-64.693
			c14.778-17.909,35.371-30.322,57.98-34.946c3.318-0.679,6.713-1.197,10.097-1.541l-1.083-10.652
			c-3.736,0.38-7.492,0.954-11.161,1.704c-24.997,5.118-47.758,18.833-64.09,38.621c-16.554,20.06-25.671,45.454-25.671,71.508
			c0,28.064,10.399,54.938,29.283,75.671c18.756,20.591,44.288,33.442,71.892,36.181l1.058-10.652
			C142.004,289.557,118.908,277.93,101.936,259.297z"/>
		<path fill="#00B500" d="M260.273,115.164c-18.755-20.593-44.285-33.444-71.892-36.186l-5.88-0.583v107.087h-39.607v10.706h39.607
			v106.503h5.862l0.27-0.026c27.547-2.799,53.019-15.671,71.72-36.249c18.832-20.721,29.204-47.564,29.204-75.58
			C289.558,162.77,279.159,135.896,260.273,115.164z M252.432,259.215c-15.634,17.201-36.492,28.453-59.227,32.062l0.002-95.089
			h52.042l-13.434,12.48l7.302,7.84l27.608-25.67l-27.608-25.671l-7.302,7.838l13.424,12.478h-52.032V90.392
			c22.697,3.604,43.521,14.821,59.152,31.979c17.085,18.758,26.493,43.071,26.493,68.465
			C278.852,216.186,269.469,240.471,252.432,259.215z"/>
	</g>
	<g>
		<g>
			<path fill="#FFFFFF" d="M352.84,178.525c2.503,0,4.906-0.363,7.21-1.087c2.304-0.725,4.356-1.788,6.156-3.194
				c1.8-1.403,3.282-3.136,4.446-5.201c1.162-2.063,1.831-4.455,2.006-7.178h7.576c-0.176,3.382-1.021,6.497-2.537,9.351
				c-1.514,2.854-3.511,5.312-5.991,7.374c-2.48,2.065-5.345,3.678-8.595,4.84c-3.249,1.164-6.672,1.747-10.271,1.747
				c-5.003,0-9.394-0.913-13.169-2.733s-6.946-4.334-9.515-7.541c-2.568-3.203-4.499-6.968-5.794-11.292
				c-1.296-4.322-1.942-8.986-1.942-13.993v-2.765c0-5.006,0.646-9.667,1.942-13.994c1.295-4.32,3.216-8.073,5.76-11.259
				c2.546-3.18,5.72-5.692,9.516-7.539c3.796-1.845,8.175-2.766,13.137-2.766c3.82,0,7.363,0.595,10.635,1.779
				c3.271,1.185,6.124,2.876,8.559,5.07c2.438,2.195,4.377,4.864,5.829,8.001c1.449,3.137,2.262,6.638,2.438,10.5h-7.576
				c-0.175-2.895-0.799-5.486-1.873-7.771c-1.078-2.28-2.504-4.233-4.281-5.857c-1.777-1.626-3.843-2.864-6.189-3.722
				c-2.348-0.856-4.865-1.286-7.54-1.286c-4.081,0-7.539,0.791-10.37,2.372c-2.832,1.582-5.147,3.71-6.947,6.389
				c-1.801,2.675-3.107,5.749-3.918,9.217c-0.812,3.469-1.218,7.09-1.218,10.865v2.765c0,3.818,0.406,7.475,1.218,10.963
				c0.811,3.49,2.107,6.564,3.885,9.22c1.777,2.653,4.105,4.773,6.98,6.354C345.279,177.732,348.758,178.525,352.84,178.525z"/>
			<path fill="#FFFFFF" d="M408.744,84.299h9.547l-15.209,18.371h-6.914L408.744,84.299z M404.662,183.859h-7.902v-71.247h7.902
				V183.859z"/>
			<path fill="#FFFFFF" d="M448.186,172.992l21.664-60.38h8.098l-26.6,71.247h-6.389l-26.732-71.247h8.098L448.186,172.992z"/>
			<path fill="#FFFFFF" d="M490.393,92.004c0-1.492,0.482-2.756,1.449-3.787c0.965-1.032,2.283-1.547,3.951-1.547
				s2.996,0.516,3.984,1.547c0.986,1.031,1.48,2.295,1.48,3.787c0,1.491-0.494,2.744-1.48,3.751
				c-0.988,1.011-2.316,1.517-3.984,1.517s-2.986-0.506-3.951-1.517C490.875,94.748,490.393,93.495,490.393,92.004z
				 M499.678,183.859h-7.902v-71.247h7.902V183.859z"/>
			<path fill="#FFFFFF" d="M547.416,178.525c2.504,0,4.906-0.363,7.211-1.087c2.303-0.725,4.355-1.788,6.158-3.194
				c1.797-1.403,3.279-3.136,4.441-5.201c1.162-2.063,1.834-4.455,2.008-7.178h7.572c-0.176,3.382-1.02,6.497-2.533,9.351
				s-3.512,5.312-5.992,7.374c-2.48,2.065-5.346,3.678-8.594,4.84c-3.246,1.164-6.674,1.747-10.271,1.747
				c-5.002,0-9.393-0.913-13.17-2.733c-3.775-1.821-6.945-4.334-9.514-7.541c-2.568-3.203-4.5-6.968-5.797-11.292
				c-1.293-4.322-1.939-8.986-1.939-13.993v-2.765c0-5.006,0.646-9.667,1.939-13.994c1.297-4.32,3.219-8.073,5.764-11.259
				c2.545-3.18,5.717-5.692,9.518-7.539c3.795-1.845,8.172-2.766,13.135-2.766c3.818,0,7.363,0.595,10.635,1.779
				c3.266,1.185,6.119,2.876,8.559,5.07c2.438,2.195,4.379,4.864,5.826,8.001c1.449,3.137,2.26,6.638,2.436,10.5h-7.572
				c-0.174-2.895-0.801-5.486-1.873-7.771c-1.078-2.28-2.504-4.233-4.281-5.857c-1.777-1.626-3.844-2.864-6.189-3.722
				c-2.348-0.856-4.861-1.286-7.539-1.286c-4.084,0-7.541,0.791-10.373,2.372c-2.832,1.582-5.145,3.71-6.947,6.389
				c-1.799,2.675-3.105,5.749-3.916,9.217c-0.812,3.469-1.217,7.09-1.217,10.865v2.765c0,3.818,0.404,7.475,1.217,10.963
				c0.811,3.49,2.105,6.564,3.885,9.22c1.777,2.653,4.104,4.773,6.979,6.354C539.855,177.732,543.334,178.525,547.416,178.525z"/>
			<path fill="#FFFFFF" d="M635.518,183.859c-0.439-1.228-0.779-2.733-1.021-4.511c-0.24-1.777-0.404-3.589-0.49-5.433
				c-1.188,1.537-2.592,2.984-4.217,4.344c-1.623,1.362-3.447,2.548-5.465,3.557c-2.02,1.011-4.238,1.821-6.65,2.438
				c-2.412,0.614-5.025,0.921-7.836,0.921c-3.467,0-6.617-0.507-9.447-1.515c-2.832-1.011-5.25-2.426-7.244-4.246
				c-1.998-1.823-3.545-3.963-4.641-6.423c-1.102-2.455-1.648-5.135-1.648-8.032c0-3.466,0.746-6.595,2.238-9.382
				c1.49-2.789,3.645-5.158,6.455-7.112c2.807-1.951,6.221-3.445,10.238-4.479c4.016-1.03,8.525-1.547,13.531-1.547h14.617v-8.099
				c0-5.091-1.568-9.096-4.709-12.014c-3.139-2.921-7.713-4.379-13.729-4.379c-2.764,0-5.312,0.371-7.637,1.117
				c-2.328,0.746-4.336,1.778-6.027,3.095c-1.688,1.317-3.006,2.844-3.949,4.575c-0.943,1.736-1.416,3.588-1.416,5.567l-7.9-0.067
				c0-2.677,0.66-5.27,1.975-7.771c1.316-2.5,3.172-4.729,5.562-6.684c2.396-1.95,5.271-3.521,8.627-4.706
				c3.359-1.185,7.08-1.779,11.164-1.779c3.771,0,7.252,0.485,10.436,1.449c3.182,0.968,5.914,2.416,8.197,4.344
				c2.279,1.933,4.059,4.348,5.334,7.245c1.271,2.896,1.908,6.28,1.908,10.14v34.502c0,1.229,0.045,2.503,0.131,3.822
				c0.088,1.317,0.232,2.591,0.43,3.817c0.199,1.231,0.43,2.405,0.691,3.522c0.264,1.119,0.57,2.099,0.92,2.93v0.792H635.518z
				 M610.76,178.196c2.852,0,5.498-0.361,7.938-1.088c2.436-0.722,4.641-1.719,6.613-2.993c1.977-1.274,3.689-2.756,5.139-4.446
				s2.611-3.522,3.488-5.5V148.5h-13.496c-4.041,0-7.65,0.361-10.836,1.083c-3.182,0.728-5.869,1.771-8.064,3.129
				c-2.195,1.362-3.875,3.021-5.035,4.972c-1.166,1.953-1.746,4.162-1.746,6.617c0,1.933,0.371,3.743,1.121,5.433
				c0.746,1.692,1.809,3.16,3.189,4.41c1.385,1.253,3.064,2.242,5.041,2.964C606.082,177.835,608.303,178.196,610.76,178.196z"/>
		</g>
		<g>
			<g>
				<path fill="#FFFFFF" d="M347.431,259.514c0-5.531,0.637-10.523,1.908-14.98c1.272-4.453,3.095-8.264,5.468-11.422
					c2.369-3.162,5.254-5.6,8.656-7.311c3.402-1.712,7.232-2.568,11.489-2.568c5.049,0,9.383,1.012,13.006,3.029
					c3.619,2.02,6.617,4.809,8.986,8.364v-39.97h7.836v101.137h-7.377l-0.326-9.479c-2.371,3.38-5.391,6.026-9.053,7.935
					c-3.666,1.91-8.068,2.865-13.204,2.865c-4.214,0-8.012-0.891-11.392-2.668c-3.38-1.779-6.254-4.258-8.623-7.439
					c-2.373-3.186-4.195-6.99-5.468-11.426c-1.271-4.434-1.908-9.326-1.908-14.684V259.514z M355.397,260.896
					c0,4.172,0.417,8.047,1.251,11.622c0.834,3.577,2.108,6.685,3.82,9.318c1.711,2.634,3.873,4.698,6.484,6.188
					c2.612,1.492,5.717,2.238,9.319,2.238c2.676,0,5.102-0.317,7.275-0.955c2.174-0.635,4.104-1.521,5.793-2.665
					c1.691-1.14,3.162-2.501,4.412-4.083c1.254-1.578,2.316-3.292,3.193-5.137v-33.449c-0.789-1.802-1.754-3.533-2.896-5.2
					c-1.141-1.669-2.545-3.149-4.215-4.448c-1.668-1.293-3.6-2.324-5.793-3.094c-2.197-0.768-4.742-1.154-7.641-1.154
					c-3.642,0-6.781,0.76-9.415,2.275s-4.807,3.588-6.518,6.221c-1.712,2.635-2.986,5.752-3.82,9.35
					c-0.834,3.602-1.251,7.463-1.251,11.59V260.896z"/>
				<path fill="#FFFFFF" d="M425.064,203.939c0-1.49,0.48-2.754,1.447-3.787c0.965-1.032,2.281-1.545,3.951-1.545
					c1.666,0,2.994,0.514,3.982,1.545c0.988,1.033,1.482,2.297,1.482,3.787c0,1.494-0.494,2.744-1.482,3.754
					c-0.988,1.009-2.316,1.516-3.982,1.516c-1.67,0-2.986-0.507-3.951-1.516C425.545,206.684,425.064,205.434,425.064,203.939z
					 M434.348,295.793h-7.902v-71.242h7.902V295.793z"/>
				<path fill="#FFFFFF" d="M452.584,259.514c0-5.531,0.627-10.523,1.879-14.98c1.25-4.453,3.061-8.264,5.432-11.422
					c2.373-3.162,5.258-5.6,8.658-7.311c3.402-1.712,7.256-2.568,11.557-2.568c5.092,0,9.459,1.02,13.104,3.061
					c3.645,2.044,6.652,4.886,9.021,8.529l0.395-10.271h7.373v69.992c0,4.611-0.68,8.748-2.039,12.413
					c-1.363,3.665-3.281,6.772-5.762,9.317c-2.48,2.547-5.477,4.498-8.988,5.859c-3.51,1.361-7.441,2.045-11.787,2.045
					c-2.238,0-4.521-0.255-6.848-0.759c-2.326-0.505-4.576-1.262-6.748-2.272c-2.172-1.01-4.225-2.271-6.158-3.787
					c-1.932-1.514-3.619-3.305-5.07-5.364l4.412-4.745c2.896,3.559,5.967,6.16,9.219,7.804c3.248,1.648,6.805,2.47,10.668,2.47
					c3.379,0,6.375-0.516,8.988-1.547c2.609-1.031,4.816-2.525,6.617-4.477c1.799-1.955,3.168-4.324,4.115-7.111
					c0.941-2.788,1.414-5.957,1.414-9.514v-8.299c-2.369,3.295-5.377,5.871-9.018,7.736c-3.645,1.867-7.992,2.801-13.039,2.801
					c-4.258,0-8.076-0.891-11.457-2.668c-3.379-1.779-6.254-4.258-8.627-7.439c-2.371-3.186-4.182-6.99-5.432-11.426
					c-1.252-4.434-1.879-9.326-1.879-14.684V259.514z M460.553,260.896c0,4.172,0.418,8.047,1.252,11.622
					c0.834,3.577,2.105,6.685,3.818,9.318s3.875,4.698,6.484,6.188c2.611,1.492,5.719,2.238,9.318,2.238
					c2.723,0,5.17-0.328,7.344-0.986c2.17-0.66,4.092-1.571,5.76-2.734c1.668-1.16,3.117-2.535,4.348-4.117
					c1.227-1.576,2.281-3.312,3.158-5.198v-33.12c-0.746-1.844-1.701-3.612-2.861-5.303c-1.164-1.689-2.57-3.18-4.217-4.479
					c-1.645-1.293-3.566-2.324-5.76-3.094c-2.197-0.768-4.742-1.154-7.639-1.154c-3.643,0-6.783,0.76-9.416,2.275
					c-2.635,1.516-4.807,3.588-6.52,6.221c-1.713,2.635-2.984,5.752-3.818,9.35c-0.834,3.602-1.252,7.463-1.252,11.59V260.896z"/>
				<path fill="#FFFFFF" d="M530.086,203.939c0-1.49,0.482-2.754,1.449-3.787c0.965-1.032,2.285-1.545,3.953-1.545
					c1.664,0,2.992,0.514,3.982,1.545c0.988,1.033,1.48,2.297,1.48,3.787c0,1.494-0.492,2.744-1.48,3.754
					c-0.99,1.009-2.318,1.516-3.982,1.516c-1.668,0-2.988-0.507-3.953-1.516C530.568,206.684,530.086,205.434,530.086,203.939z
					 M539.369,295.793h-7.898v-71.242h7.898V295.793z"/>
				<path fill="#FFFFFF" d="M573.018,206.311v18.24h14.75v6.453h-14.75v47.475c0,2.504,0.254,4.51,0.76,6.023
					c0.504,1.514,1.184,2.701,2.039,3.557c0.857,0.855,1.846,1.427,2.965,1.713c1.117,0.287,2.291,0.426,3.521,0.426
					c1.186,0,2.326-0.074,3.424-0.229c1.1-0.154,2.088-0.297,2.963-0.43l0.332,6.453c-0.971,0.35-2.23,0.628-3.789,0.824
					c-1.559,0.199-3.105,0.297-4.641,0.297c-2.236,0-4.316-0.297-6.227-0.891c-1.906-0.593-3.543-1.612-4.902-3.062
					c-1.361-1.446-2.424-3.368-3.193-5.761c-0.768-2.392-1.15-5.367-1.15-8.922v-47.475h-13.105v-6.453h13.105v-18.24H573.018z"/>
				<path fill="#FFFFFF" d="M649.07,295.793c-0.438-1.226-0.779-2.73-1.02-4.506c-0.24-1.779-0.406-3.588-0.494-5.434
					c-1.188,1.536-2.594,2.987-4.215,4.344c-1.625,1.361-3.447,2.548-5.465,3.557c-2.018,1.014-4.236,1.822-6.65,2.438
					c-2.414,0.613-5.027,0.921-7.836,0.921c-3.469,0-6.619-0.507-9.449-1.514c-2.828-1.012-5.246-2.426-7.244-4.248
					c-1.994-1.82-3.545-3.962-4.641-6.42c-1.098-2.461-1.648-5.137-1.648-8.034c0-3.466,0.746-6.595,2.238-9.382
					c1.496-2.787,3.645-5.159,6.457-7.112c2.809-1.952,6.221-3.446,10.236-4.479c4.018-1.03,8.525-1.546,13.535-1.546h14.615v-8.099
					c0-5.093-1.566-9.099-4.709-12.017c-3.139-2.92-7.713-4.379-13.727-4.379c-2.768,0-5.312,0.373-7.639,1.119
					c-2.328,0.744-4.338,1.775-6.023,3.092c-1.695,1.319-3.008,2.846-3.951,4.58c-0.945,1.731-1.418,3.588-1.418,5.564l-7.898-0.068
					c0-2.676,0.656-5.266,1.973-7.77c1.316-2.502,3.17-4.73,5.564-6.684c2.393-1.953,5.268-3.522,8.627-4.709
					c3.359-1.186,7.078-1.777,11.158-1.777c3.777,0,7.256,0.483,10.438,1.449c3.182,0.965,5.914,2.414,8.199,4.346
					c2.281,1.932,4.059,4.346,5.332,7.242c1.271,2.898,1.91,6.28,1.91,10.142v34.503c0,1.229,0.045,2.504,0.131,3.818
					c0.088,1.316,0.23,2.592,0.43,3.82c0.197,1.23,0.428,2.406,0.688,3.523c0.266,1.117,0.574,2.098,0.922,2.928v0.789H649.07z
					 M624.314,290.134c2.852,0,5.496-0.362,7.934-1.087c2.436-0.725,4.639-1.723,6.617-2.998c1.977-1.271,3.688-2.752,5.135-4.444
					c1.449-1.688,2.611-3.521,3.49-5.497v-15.673h-13.498c-4.041,0-7.65,0.366-10.832,1.09c-3.184,0.72-5.873,1.764-8.066,3.128
					c-2.195,1.361-3.873,3.018-5.037,4.968c-1.162,1.956-1.742,4.162-1.742,6.619c0,1.933,0.369,3.743,1.117,5.433
					c0.744,1.691,1.811,3.162,3.193,4.411c1.383,1.25,3.061,2.239,5.037,2.964S621.854,290.134,624.314,290.134z"/>
				<path fill="#FFFFFF" d="M685.154,295.793h-7.9V194.656h7.9V295.793z"/>
			</g>
		</g>
	</g>
</g>
</svg>
