<?xml version="1.0" encoding="utf-8"?>
<!-- Generator: Adobe Illustrator 16.0.0, SVG Export Plug-In . SVG Version: 6.00 Build 0)  -->
<!DOCTYPE svg PUBLIC "-//W3C//DTD SVG 1.1//EN" "http://www.w3.org/Graphics/SVG/1.1/DTD/svg11.dtd">
<svg version="1.1" id="Layer_1" xmlns="http://www.w3.org/2000/svg" xmlns:xlink="http://www.w3.org/1999/xlink" x="0px" y="0px"
	 width="466px" height="135px" viewBox="0 0 466 135" enable-background="new 0 0 466 135" xml:space="preserve">
<g>
	<path fill="#FFFFFF" d="M119.484,52.653c3.736,0,9.087,0.958,9.087,0.958l0.202-2.877c0,0-4.846-1.062-9.541-1.062
		c-10.501,0-12.723,6.665-12.723,18.227c0,11.409,2.272,17.973,12.723,17.973c3.988,0,9.49-1.111,9.49-1.111l-0.151-2.827
		c0,0-5.705,0.908-9.036,0.908c-8.431,0-9.794-5.249-9.794-14.942C109.741,58.054,111.054,52.653,119.484,52.653z"/>
	<path fill="#FFFFFF" d="M141.289,59.669c-7.826,0-10.652,3.737-10.652,12.672c0,9.542,2.171,13.531,10.652,13.531
		c8.431,0,10.501-4.443,10.501-13.479C151.79,63.557,148.609,59.669,141.289,59.669z M141.289,83.145
		c-6.513,0-7.573-3.13-7.573-10.804c0-7.521,1.768-9.944,7.573-9.944c5.149,0,7.37,2.776,7.37,9.996
		C148.659,79.611,147.801,83.145,141.289,83.145z"/>
	<path fill="#FFFFFF" d="M171,60.275c-1-0.151-4.114-0.606-6.336-0.606c-7.926,0-10.54,4.494-10.54,13.279
		c0,11.409,4.575,12.924,8.817,12.924c4.088,0,8.059-2.322,8.059-2.322V86h3V51h-3V60.275z M171,80.925c0,0-4.014,2.12-7.75,2.171
		c-2.928-0.051-6.096-1.213-6.096-10.047c0-6.967,1.597-10.652,7.604-10.652c2.02,0,5.242,0.453,6.242,0.555V80.925z"/>
	<path fill="#FFFFFF" d="M187.433,59.669c-6.158,0-10.4,3.435-10.4,13.178c0,8.431,2.272,12.975,9.795,13.025
		c3.938,0,9.643-0.707,9.643-0.707l-0.101-2.524c0,0-5.555,0.949-9.239,0.949c-5.301,0-7.018-3.59-7.018-8.59h17.166l0.101-2.92
		C197.379,63.598,193.945,59.669,187.433,59.669z M180.112,71c0-6,2.727-9.137,7.32-9.137c4.745,0,6.917,3.137,6.917,9.137H180.112z
		"/>
	<path fill="#FFFFFF" d="M219,80.925V67.747c0-5.553-2.438-8.078-7.688-8.078c-3.938,0-9.877,0.96-9.877,0.96l0.21,2.675
		c0,0,5.364-0.756,9.049-0.756c3.131,0,4.306,1.564,4.306,5.199v2.272l-8.037,0.858c-5.148,0.454-7.147,2.726-7.147,7.37
		c0,4.947,2.61,7.624,6.85,7.624c5.15,0,9.764-1.97,9.764-1.97c1.262,1.415,3.012,1.919,5.738,1.919l0.132-2.626
		C220.635,82.995,219,82.489,219,80.925z M215,81.479c0,0-4.098,1.716-8.39,1.716c-2.473,0-3.665-1.767-3.665-4.997
		c0-2.777,0.852-4.595,4.234-4.897l7.82-0.757V81.479z"/>
	<path fill="#FFFFFF" d="M236.373,59.669c-3.836,0-8.373,2.272-8.373,2.272V61h-4v25h4V64.567c0,0,4.223-2.121,8.01-2.121
		c4.996,0,5.99,2.474,5.99,9.844V86h3V72.24C245,62.85,243.289,59.669,236.373,59.669z"/>
	<path fill="#FFFFFF" d="M265,60.275c-1-0.151-3.832-0.606-6.053-0.606c-7.926,0-10.396,4.494-10.396,13.279
		c0,11.409,4.361,12.924,8.604,12.924c4.09,0,7.846-2.322,7.846-2.322V86h3V51h-3V60.275z M265,80.925c0,0-3.73,2.12-7.465,2.171
		c-2.93-0.051-5.955-1.213-5.955-10.047c0-6.967,1.384-10.652,7.392-10.652c2.02,0,5.028,0.453,6.028,0.555V80.925z"/>
	<path fill="#FFFFFF" d="M282.391,59.669c-7.825,0-10.653,3.737-10.653,12.672c0,9.542,2.173,13.531,10.653,13.531
		c8.432,0,10.501-4.443,10.501-13.479C292.892,63.557,289.71,59.669,282.391,59.669z M282.391,83.145
		c-6.513,0-7.572-3.13-7.572-10.804c0-7.521,1.768-9.944,7.572-9.944c5.149,0,7.37,2.776,7.37,9.996
		C289.761,79.611,288.903,83.145,282.391,83.145z"/>
	<polygon fill="#FFFFFF" points="313.404,77.556 305.479,51 296,51 296,86 301,86 301,58 302.5,58 310.375,84 316.434,84 
		324.259,58 324,58 324,86 331,86 331,51 321.331,51 	"/>
	<polygon fill="#FFFFFF" points="355.359,52.097 353.39,46.645 341.072,51.339 342.84,56.135 	"/>
	<path fill="#FFFFFF" d="M347.687,59.569c-7.018,0-10.956,4.291-10.956,13.479c0,8.885,2.979,12.873,10.603,12.873
		c4.493,0,10.248-1.211,10.248-1.211l-0.102-4.493c0,0-5.301,0.843-9.289,0.843c-4.089,0-5.604-2.061-5.653-5.061h15.498
		l0.404-4.529C358.439,63.645,354.854,59.569,347.687,59.569z M342.537,71c0-4,1.564-6.007,5.149-6.007S352.734,66,352.734,71
		H342.537z"/>
	<polygon fill="#FFFFFF" points="376.514,61 371.718,69.481 366.972,61 360.812,61 367.982,73.525 360.812,86 366.972,86 
		371.718,77.569 376.514,86 382.673,86 375.453,73.525 382.673,61 	"/>
	<rect x="387" y="50" fill="#FFFFFF" width="5" height="7"/>
	<rect x="387" y="61" fill="#FFFFFF" width="5" height="25"/>
	<path fill="#FFFFFF" d="M410.644,65.071c1.919,0,5.907,0.454,5.907,0.454l0.202-4.997c0,0-4.948-0.959-7.675-0.959
		c-7.521,0-10.603,3.837-10.603,12.873c0,9.593,2.777,13.479,10.451,13.479c2.677,0,7.826-0.908,7.826-0.908l-0.153-4.999
		c0,0-3.988,0.455-5.905,0.455c-5.301,0-6.362-1.969-6.362-8.027C404.332,66.99,405.493,65.071,410.644,65.071z"/>
	<path fill="#FFFFFF" d="M429.908,59.569c-8.53,0-11.358,4.998-11.358,13.074c0,8.23,2.676,13.278,11.358,13.278
		c8.685,0,11.309-5.149,11.309-13.278C441.217,64.617,438.289,59.569,429.908,59.569z M429.908,80.723
		c-4.493,0-5.503-2.625-5.503-8.079c0-5.4,1.213-7.824,5.503-7.824c4.09,0,5.452,2.524,5.452,7.824
		C435.36,77.996,434.401,80.723,429.908,80.723z"/>
	<path fill="#FFFFFF" d="M62.973,33.483c-18.47,0-33.443,14.973-33.443,33.442s14.974,33.442,33.443,33.442
		s33.443-14.973,33.443-33.442S81.442,33.483,62.973,33.483z M59.179,82.584L46.827,69.88l12.705-12.352l3.807,3.912l-8.795,8.548
		l8.549,8.792L59.179,82.584z M65.681,76.323l-3.805-3.914l8.793-8.547l-8.547-8.794l3.914-3.804l12.353,12.707L65.681,76.323z"/>
</g>
</svg>
