<?xml version="1.0" encoding="utf-8"?>
<!-- Generator: Adobe Illustrator 16.0.0, SVG Export Plug-In . SVG Version: 6.00 Build 0)  -->
<!DOCTYPE svg PUBLIC "-//W3C//DTD SVG 1.1//EN" "http://www.w3.org/Graphics/SVG/1.1/DTD/svg11.dtd">
<svg version="1.1" id="Layer_1" xmlns="http://www.w3.org/2000/svg" xmlns:xlink="http://www.w3.org/1999/xlink" x="0px" y="0px"
	 width="466px" height="135px" viewBox="0 0 466 135" enable-background="new 0 0 466 135" xml:space="preserve">
<g>
	<g>
		<path fill="none" stroke="#D7BE41" stroke-width="3.4118" stroke-linecap="round" stroke-miterlimit="10" d="M108.938,66.925
			c0,6.278-5.091,11.369-11.368,11.369c-6.28,0-11.369-5.091-11.369-11.369"/>
		<path fill="none" stroke="#25A8E0" stroke-width="3.4118" stroke-linecap="round" stroke-miterlimit="10" d="M97.569,55.557
			c6.277,0,11.368,5.091,11.368,11.368"/>
		<path fill="none" stroke="#F4F5F6" stroke-width="3.4118" stroke-linecap="round" stroke-miterlimit="10" d="M121.219,66.925
			c0,13.063-10.588,23.65-23.649,23.65"/>
		<path fill="none" stroke="#79CFE5" stroke-width="3.4118" stroke-linecap="round" stroke-miterlimit="10" d="M97.569,90.575
			c-13.062,0-23.651-10.587-23.651-23.65c0-13.061,10.59-23.651,23.651-23.651s23.649,10.591,23.649,23.651"/>
		<path fill="none" stroke="#548AC8" stroke-width="3.4118" stroke-linecap="round" stroke-miterlimit="10" d="M122.533,94.639
			c-6.61,5.959-15.362,9.586-24.964,9.586c-20.602,0-37.298-16.7-37.298-37.3s16.696-37.297,37.298-37.297"/>
		<path fill="none" stroke="#F05833" stroke-width="3.4118" stroke-linecap="round" stroke-miterlimit="10" d="M129.494,47.633
			c3.412,5.628,5.372,12.231,5.372,19.292c0,11-4.76,20.886-12.333,27.714"/>
	</g>
	<g>
		<path fill="#FFFFFF" d="M221.697,72.924c-0.007-6.723-0.248-13.506-10.633-13.506c-3.797,0-6.911,1.487-9.011,4.298l2.185,1.633
			c1.587-2.122,3.883-3.2,6.826-3.2c7.204,0,7.843,3.324,7.899,9.409h-9.63c-4.238,0-6.212,1.854-7.124,3.407
			c-1.036,1.771-1.036,3.705-1.036,4.44c0,2.985,1.284,7.991,9.891,7.991c3.492,0,6.129-1.156,7.902-3.445v3.275h2.73V72.924
			L221.697,72.924z M211.064,84.668c-7.16,0-7.16-3.961-7.16-5.271c0-0.574,0-1.922,0.662-3.053
			c0.799-1.364,2.404-2.057,4.768-2.057h9.623C218.775,81.455,216.322,84.668,211.064,84.668z"/>
		<path fill="#FFFFFF" d="M299.999,72.924c-0.005-6.723-0.25-13.506-10.633-13.506c-3.797,0-6.913,1.487-9.013,4.298l2.187,1.633
			c1.587-2.122,3.883-3.2,6.826-3.2c7.204,0,7.839,3.324,7.897,9.409h-9.63c-4.237,0-6.212,1.854-7.122,3.407
			c-1.036,1.771-1.036,3.705-1.036,4.44c0,2.985,1.286,7.991,9.891,7.991c3.492,0,6.127-1.156,7.904-3.445v3.275h2.729V72.924
			L299.999,72.924z M289.366,84.668c-7.16,0-7.16-3.961-7.16-5.271c0-0.574,0-1.922,0.66-3.053c0.8-1.364,2.405-2.057,4.768-2.057
			h9.625C297.077,81.455,294.622,84.668,289.366,84.668z"/>
		<path fill="#FFFFFF" d="M175.131,47.619v15.246c-1.777-2.289-4.412-3.447-7.906-3.447c-4.852,0-10.633,2.429-10.633,13.99
			c0,11.561,5.781,13.988,10.633,13.988c3.494,0,6.129-1.156,7.906-3.447v3.277h2.729V47.619H175.131z M167.225,84.668
			c-3.393,0-7.902-1.168-7.902-11.26c0-11.26,5.947-11.26,7.902-11.26c3.394,0,7.904,1.166,7.904,11.26
			C175.129,81.196,172.689,84.668,167.225,84.668z"/>
		<path fill="#FFFFFF" d="M256.332,62.546v-2.73h-5.802v-7.931h-2.729v7.931h-3.668v2.73h3.668v18.082
			c0,5.113,3.735,6.769,5.546,6.769h2.984v-2.729h-2.984c-0.028,0-2.817-0.301-2.817-4.04V62.546H256.332z"/>
		<path fill="#FFFFFF" d="M351.831,58.054c-3.518,0-6.415,1.471-8.457,4.076c-1.487-2.365-3.989-4.076-8.205-4.076
			c-2.256,0-4.312,0.795-6.053,2.176v-1.521h-5.458v28.519h5.458V73.408c0-4.797,2.122-9.895,6.053-9.895
			c3.404,0,4.923,1.428,4.923,9.895v14.189h5.459V73.408c0-1.652,0.303-9.895,6.28-9.895c3.488,0,5.15,1.481,5.15,9.895v14.189
			h5.457V73.408C362.438,68.813,362.438,58.054,351.831,58.054z"/>
		<g>
			<polygon fill="#FFFFFF" points="385.619,58.054 391.49,67.467 397.922,67.467 392.054,58.054 			"/>
			<polygon fill="#FFFFFF" points="401.138,72.626 410.225,58.054 403.79,58.054 397.922,67.467 394.706,72.626 394.706,72.626 
				385.371,87.598 391.803,87.598 397.922,77.785 404.041,87.598 410.475,87.598 			"/>
		</g>
	</g>
</g>
</svg>
