<?xml version="1.0" encoding="utf-8"?>
<!-- Generator: Adobe Illustrator 18.1.1, SVG Export Plug-In . SVG Version: 6.00 Build 0)  -->
<svg version="1.1" id="Layer_1" xmlns="http://www.w3.org/2000/svg" xmlns:xlink="http://www.w3.org/1999/xlink" x="0px" y="0px"
	 viewBox="0 0 57 81" enable-background="new 0 0 57 81" xml:space="preserve">
<path fill="#F46C39" stroke="#F46C39" stroke-width="2.0914" stroke-miterlimit="10" d="M49.6,18.8c0-2.4-2.4-4.4-5.3-4.4
	c-0.9,0-1.8,0.2-2.6,0.6l0-2.6c0-0.1,0-0.2,0-0.3c0-2.4-2.4-4.4-5.3-4.4c-0.9,0-1.9,0.2-2.6,0.6c-0.3-2.2-2.5-3.9-5.2-3.9
	c-2.7,0-4.9,1.7-5.2,3.9c-0.8-0.4-1.7-0.6-2.7-0.6c-2.9,0-5.3,2-5.3,4.4V26c-1.3-0.9-3-1.5-4.8-1.5c-1.7,0-3.1,1.2-3.1,2.6v19.7
	c0,5.2,2.7,9.9,7.1,13.2c0.1,0.1,0.1,0.1,0.2,0.2c0.2,0.2,0.4,0.3,0.7,0.5l0,15.1c0,0.4,0.6,0.8,1.3,0.8l0.1,0c0,0,0,0,0,0h0
	c0.7,0,1.3-0.4,1.3-0.8l0-13.6c1.1,0.5,2.2,1,3.3,1.3c0.2,0,0.3,0.1,0.5,0.1c0.6,0,1.1-0.3,1.3-0.7c0.3-0.6-0.1-1.2-0.8-1.5
	c-0.4-0.1-0.8-0.3-1.2-0.4c0,0,0,0,0,0s0,0-0.1,0c-1.6-0.6-3.1-1.4-4.5-2.4c-0.1-0.1-0.2-0.1-0.3-0.2c-3.8-2.8-6.1-6.9-6.1-11.5v-16
	l0-3.7c0-0.2,0.2-0.4,0.5-0.4c2.6,0,4.8,1.8,4.8,4v8.6c0,0.6,0.6,1.1,1.3,1.1h0c5.9,0,6.5,5.7,6.5,10.6c0,0.6,0.6,1.1,1.3,1.1
	c0.7,0,1.3-0.5,1.3-1.1c0-5.7-1-12.2-7.8-12.7V12.2c0-1.2,1.2-2.2,2.6-2.2c1.5,0,2.6,1,2.6,2.2c0,0.1,0,0.2,0,0.3l0,19.7
	c0,0.6,0.6,1.1,1.3,1.1l0,0l0,0c0.7,0,1.3-0.5,1.3-1.1v-23l0-0.1c0-0.1,0-0.1,0-0.2c0-1.2,1.2-2.2,2.6-2.2c1.5,0,2.6,1,2.6,2.2
	c0,0.1,0,0.1,0,0.2l0,0l0,2.8c0,0.1,0,0.2,0,0.3c0,0.1,0,0.2,0,0.2v19.7c0,0.6,0.6,1.1,1.3,1.1c0.7,0,1.3-0.5,1.3-1.1V12
	c0.1-1.1,1.3-2,2.6-2c1.5,0,2.6,1,2.6,2.2c0,0.1,0,0.1,0,0.2l0,21.6c0,0.6,0.6,1.1,1.3,1.1l0.1,0c0,0,0,0,0,0h0
	c0.7,0,1.3-0.5,1.3-1.1l0-14.9l0-0.1c0-0.1,0-0.1,0-0.2c0-1.2,1.2-2.2,2.6-2.2c1.5,0,2.6,1,2.6,2.2c0,0.1,0,0.1,0,0.2l0,27.8
	c0,4.4-2.2,8.3-5.7,11.1c-0.1,0-0.2,0.1-0.3,0.2c-1.8,1.4-3.9,2.5-6.2,3.2c-0.7,0.2-1.1,0.9-0.8,1.5c0.2,0.5,0.7,0.7,1.3,0.7
	c0.2,0,0.3,0,0.5-0.1c1.2-0.4,2.3-0.8,3.3-1.3l0,13.6c0,0.4,0.6,0.8,1.3,0.8l0.1,0c0,0,0,0,0,0h0c0.7,0,1.3-0.4,1.3-0.8l0-15.2
	c0.4-0.3,0.8-0.5,1.1-0.8c0,0,0.1-0.1,0.1-0.1c4.1-3.2,6.7-7.8,6.7-12.9l0-27.7C49.6,19,49.6,18.9,49.6,18.8z"/>
</svg>
