<?xml version="1.0" encoding="utf-8"?>
<!-- Generator: Adobe Illustrator 18.1.1, SVG Export Plug-In . SVG Version: 6.00 Build 0)  -->
<svg version="1.1" id="Layer_1" xmlns="http://www.w3.org/2000/svg" xmlns:xlink="http://www.w3.org/1999/xlink" x="0px" y="0px"
	 viewBox="0 0 102 70" enable-background="new 0 0 102 70" xml:space="preserve">
<g>
	<g>
		<path fill="#011F26" stroke="#011F26" stroke-width="1.1213" stroke-miterlimit="10" d="M91.9,53.9c5.3-9.6,3.6-21.6-4.2-29.4
			c-4.7-4.7-10.9-7.3-17.5-7.3c-1.8,0-3.6,0.2-5.3,0.6c-1.2-1.9-2.6-3.6-4.2-5.2c-5.9-5.9-13.8-9.2-22.3-9.2
			c-8.4,0-16.3,3.3-22.3,9.2C5.8,22.9,4,39.1,11.8,51.4L9,62.4c-0.2,0.8,0,1.6,0.6,2.1c0.6,0.6,1.4,0.8,2.1,0.6l11.4-2.9
			c4.7,2.6,10,4,15.4,4c0,0,0,0,0,0c6,0,11.7-1.7,16.6-4.7c4.3,3.4,9.6,5.2,15.2,5.2c4.6,0,9-1.3,12.9-3.6l8.2,2.1
			c0.8,0.2,1.6,0,2.1-0.6c0.6-0.6,0.8-1.4,0.6-2.1L91.9,53.9z M51.7,58.4c-4,2.3-8.5,3.5-13.2,3.5c-4.9,0-9.7-1.3-13.9-3.9
			c-0.3-0.2-0.7-0.3-1.1-0.3c-0.2,0-0.4,0-0.5,0.1l-8.6,2.2l2.1-8.3c0.2-0.6,0-1.3-0.3-1.8c-7.2-10.7-5.7-25,3.4-34.1
			c5.1-5.1,11.9-7.9,19.1-7.9c7.2,0,14,2.8,19.1,7.9c1.1,1.1,2.1,2.3,2.9,3.5c0.9,1.2,1.6,2.5,2.3,3.9c1.8,3.6,2.7,7.6,2.7,11.8
			c0,7.2-2.8,14-7.9,19.1c-0.7,0.7-1.4,1.3-2.2,1.9C54.2,56.8,53,57.6,51.7,58.4z M87.4,54.1l1.5,5.8l-5.6-1.4
			c-0.6-0.2-1.3,0-1.8,0.3c-3.3,2.2-7.2,3.4-11.3,3.4c-4.1,0-8.1-1.2-11.4-3.5c0.6-0.5,1.3-1.1,1.9-1.7c5.9-5.9,9.2-13.8,9.2-22.3
			c0-4.5-1-8.9-2.8-12.9c1-0.2,2-0.2,3.1-0.2c5.4,0,10.5,2.1,14.4,6c6.6,6.6,7.9,16.8,3.1,24.8C87.3,52.9,87.3,53.5,87.4,54.1z"/>
	</g>
	<g>
		<path fill="#011F26" d="M46.7,28.2c0,1-0.2,1.8-0.5,2.5c-0.3,0.7-0.7,1.3-1.2,1.8c-0.5,0.5-1,1-1.6,1.4c-0.6,0.4-1.1,0.8-1.6,1.2
			c-0.5,0.4-0.9,0.8-1.2,1.2c-0.3,0.4-0.5,0.9-0.5,1.4c0,0.3,0,0.4,0.1,0.6c0,0.1,0.1,0.3,0.1,0.5c0,0.5-0.2,1-0.5,1.4
			c-0.4,0.4-0.9,0.7-1.6,0.7c-0.4,0-0.7-0.1-1.1-0.2c-0.3-0.2-0.6-0.4-0.9-0.7c-0.3-0.3-0.5-0.7-0.6-1.1c-0.1-0.5-0.2-1-0.2-1.6
			c0-0.8,0.1-1.5,0.4-2c0.3-0.6,0.6-1.1,1.1-1.5c0.4-0.4,0.9-0.8,1.4-1.2c0.5-0.3,1-0.7,1.4-1c0.4-0.3,0.8-0.7,1.1-1
			c0.3-0.4,0.4-0.7,0.4-1.2c0-0.6-0.2-1.1-0.7-1.6c-0.5-0.4-1.3-0.7-2.3-0.7c-0.6,0-1.2,0.1-1.7,0.3c-0.5,0.2-1,0.4-1.5,0.7
			c-0.5,0.3-1,0.5-1.6,0.5c-0.6,0-1.2-0.2-1.6-0.6c-0.5-0.4-0.7-1-0.7-1.7c0-0.4,0.1-0.7,0.2-1c0.3-0.5,0.7-1,1.3-1.4
			c0.6-0.4,1.2-0.7,2-1c0.7-0.2,1.5-0.4,2.2-0.6c0.8-0.1,1.4-0.2,2.1-0.2c1.3,0,2.4,0.1,3.4,0.4c1,0.3,1.8,0.7,2.5,1.3
			c0.7,0.5,1.2,1.2,1.6,1.9C46.6,26.4,46.7,27.2,46.7,28.2z M41.7,45.8c0,0.9-0.3,1.6-0.9,2.2c-0.6,0.6-1.4,0.9-2.2,0.9
			c-0.9,0-1.6-0.3-2.2-0.9c-0.6-0.6-0.9-1.4-0.9-2.2c0-0.9,0.3-1.6,0.9-2.2c0.6-0.6,1.4-0.9,2.2-0.9c0.9,0,1.6,0.3,2.2,0.9
			C41.4,44.2,41.7,44.9,41.7,45.8z"/>
	</g>
</g>
</svg>
