<?xml version="1.0" encoding="utf-8"?>
<!-- Generator: Adobe Illustrator 18.1.1, SVG Export Plug-In . SVG Version: 6.00 Build 0)  -->
<svg version="1.1" id="Layer_1" xmlns="http://www.w3.org/2000/svg" xmlns:xlink="http://www.w3.org/1999/xlink" x="0px" y="0px"
	 viewBox="0 0 97 76" enable-background="new 0 0 97 76" xml:space="preserve">
<g>
	<path fill="#011F26" d="M89.3,17.4c-2.2-2.2-4.5-3.9-6.9-5.3V9.5c0-1.3-0.9-2.4-2.2-2.6c-2.4-0.4-4.9-0.6-7.2-0.6
		c-13.1,0-21.3,6.3-24.7,9.5c-3.5-2.5-11.2-7.3-20.6-7.3c-7.4,0-14.2,3-20.1,8.9c-0.5,0.5-0.8,1.2-0.8,1.9v46.6
		c0,0.9,0.5,1.8,1.3,2.3c0.8,0.5,1.8,0.5,2.6,0.1c0.1,0,6.9-3.3,16.8-3.3c6.8,0,13.5,1.5,19.9,4.5c0,0,0,0,0,0
		c0.2,0.1,0.3,0.1,0.5,0.2c0,0,0.1,0,0.1,0c0.2,0,0.3,0.1,0.5,0.1c0,0,0,0,0,0c0.1,0,0.3,0,0.4,0c0.5,0,1-0.2,1.4-0.5
		c6.2-2.8,12.6-4.2,19.2-4.2c9.9,0,16.7,3.3,16.8,3.3c0.8,0.4,1.8,0.4,2.6-0.1c0.8-0.5,1.3-1.3,1.3-2.3V19.3
		C90.1,18.6,89.8,17.9,89.3,17.4z M51.4,20.3c2-2.1,9.3-8.7,21.6-8.7c1.3,0,2.7,0.1,4.1,0.2v41.3C76.3,53,75.3,53,74.2,53
		c-5.1,0-14.2,1.1-22.8,8C51.4,60.9,51.4,20.3,51.4,20.3z M12.2,62V20.4c4.7-4.4,9.9-6.6,15.6-6.6c8.4,0,15.6,4.9,18.1,6.7v0.2V63
		c-5.9-2.3-12.1-3.4-18.3-3.4C20.9,59.6,15.6,60.9,12.2,62z M84.8,62c-3.3-1.1-8.7-2.4-15.3-2.4c-1.8,0-3.6,0.1-5.4,0.3
		c3.7-1.3,7.2-1.7,10.1-1.7c3,0,5,0.4,5,0.4c0.8,0.2,1.6,0,2.3-0.5c0.6-0.5,1-1.3,1-2.1V18.2c0.8,0.7,1.6,1.5,2.4,2.2V62z"/>
</g>
</svg>
