<?xml version="1.0" encoding="utf-8"?>
<!-- Generator: Adobe Illustrator 18.1.1, SVG Export Plug-In . SVG Version: 6.00 Build 0)  -->
<svg version="1.1" id="Layer_1" xmlns="http://www.w3.org/2000/svg" xmlns:xlink="http://www.w3.org/1999/xlink" x="0px" y="0px"
	 viewBox="0 0 80 72" enable-background="new 0 0 80 72" xml:space="preserve">
<g>
	<path fill="#F46C39" stroke="#F46C39" stroke-width="1.0932" stroke-miterlimit="10" d="M75.6,20.1c0-2.3-1.7-4.1-3.8-4.1H56.6
		v-3.7c0-3.3-2.6-6-5.9-6H29.3c-3.2,0-5.9,2.7-5.9,6V16H8.2c-2.1,0-3.8,1.8-3.8,4.1v6.6v5.1v29.8c0,2.3,1.7,4.1,3.8,4.1h63.6
		c2.1,0,3.8-1.8,3.8-4.1V26.2l0,0L75.6,20.1z M27.4,12.3c0-1,0.8-1.9,1.8-1.9h21.5c1,0,1.8,0.8,1.8,1.9V16H27.4V12.3z M8.5,20.2h63
		l0,10.9c0,1.9-1.9,3.6-4,3.6H48.6c-0.5-1.9-2.3-3.4-4.3-3.4H36c-2.1,0-3.8,1.4-4.4,3.4H12.5c-1.8,0-3.7-1.4-4.1-3.1L8.5,20.2z
		 M35.6,38.9V36c0-0.3,0.2-0.5,0.5-0.5h8.2c0.3,0,0.5,0.2,0.5,0.5v2.9v0.8c0,0.3-0.2,0.5-0.5,0.5H36c-0.3,0-0.5-0.2-0.5-0.5
		L35.6,38.9L35.6,38.9z M71.5,61.6h-63V37.9c0.8,0.4,1.7,0.7,2.6,0.8c0,0,0,0,0,0c0.2,0,0.4,0.1,0.6,0.1c0.3,0,0.6,0.1,0.9,0.1h19
		v0.8c0,2.6,2,4.6,4.5,4.6h8.2c2.5,0,4.5-2.1,4.5-4.6v-0.8h18.7c0.3,0,0.6,0,0.9-0.1c0.2,0,0.4-0.1,0.6-0.1c0,0,0.1,0,0.1,0
		c0.8-0.2,1.7-0.4,2.4-0.8L71.5,61.6z"/>
</g>
</svg>
