<?xml version="1.0" encoding="utf-8"?>
<!-- Generator: Adobe Illustrator 18.1.1, SVG Export Plug-In . SVG Version: 6.00 Build 0)  -->
<svg version="1.1" id="Layer_1" xmlns="http://www.w3.org/2000/svg" xmlns:xlink="http://www.w3.org/1999/xlink" x="0px" y="0px"
	 viewBox="0 0 75 95" enable-background="new 0 0 75 95" xml:space="preserve">
<g>
	
		<polyline fill="none" stroke="#F46C39" stroke-width="4.3143" stroke-linecap="round" stroke-linejoin="round" stroke-miterlimit="10" points="
		9.4,66 9.4,18.3 40.9,18.3 40.9,48.9 	"/>
	
		<path fill="none" stroke="#F46C39" stroke-width="4.3143" stroke-linecap="round" stroke-linejoin="round" stroke-miterlimit="10" d="
		M9.4,18.8c0,0-1.3-12,15.4-12c0,0,16.1-1,16.1,12"/>
	
		<line fill="none" stroke="#F46C39" stroke-width="4" stroke-linecap="round" stroke-linejoin="round" stroke-miterlimit="10" x1="10" y1="31" x2="40" y2="31"/>
	
		<line fill="none" stroke="#F46C39" stroke-width="4" stroke-linecap="round" stroke-linejoin="round" stroke-miterlimit="10" x1="20" y1="32" x2="20" y2="59"/>
	
		<line fill="none" stroke="#F46C39" stroke-width="4" stroke-linecap="round" stroke-linejoin="round" stroke-miterlimit="10" x1="31" y1="32" x2="31" y2="58"/>
	
		<path fill="none" stroke="#F46C39" stroke-width="4.3143" stroke-linecap="round" stroke-linejoin="round" stroke-miterlimit="10" d="
		M9.4,66.8l8.9-9.3l6.9,6.5c0,0,19.2-23.7,40.5-23.3c0,0-31.9,28.1-40.8,48.4L9.4,66.8"/>
	
		<line fill="none" stroke="#F46C39" stroke-width="4" stroke-linecap="round" stroke-linejoin="round" stroke-miterlimit="10" x1="19" y1="79" x2="29" y2="79"/>
</g>
</svg>
