<?xml version="1.0" encoding="UTF-8" standalone="no"?>
<!-- Generator: Adobe Illustrator 16.0.0, SVG Export Plug-In . SVG Version: 6.00 Build 0)  -->

<svg
   xmlns:dc="http://purl.org/dc/elements/1.1/"
   xmlns:cc="http://creativecommons.org/ns#"
   xmlns:rdf="http://www.w3.org/1999/02/22-rdf-syntax-ns#"
   xmlns:svg="http://www.w3.org/2000/svg"
   xmlns="http://www.w3.org/2000/svg"
   xmlns:sodipodi="http://sodipodi.sourceforge.net/DTD/sodipodi-0.dtd"
   xmlns:inkscape="http://www.inkscape.org/namespaces/inkscape"
   version="1.1"
   id="Layer_1"
   x="0px"
   y="0px"
   width="880"
   height="400"
   viewBox="0 0 880 400"
   enable-background="new 0 0 772 400"
   xml:space="preserve"
   inkscape:version="0.48.4 r9939"
   sodipodi:docname="logo--black.svg"><metadata
     id="metadata49"><rdf:RDF><cc:Work
         rdf:about=""><dc:format>image/svg+xml</dc:format><dc:type
           rdf:resource="http://purl.org/dc/dcmitype/StillImage" /><dc:title></dc:title></cc:Work></rdf:RDF></metadata><defs
     id="defs47" /><sodipodi:namedview
     pagecolor="#ffffff"
     bordercolor="#666666"
     borderopacity="1"
     objecttolerance="10"
     gridtolerance="10"
     guidetolerance="10"
     inkscape:pageopacity="0"
     inkscape:pageshadow="2"
     inkscape:window-width="1366"
     inkscape:window-height="674"
     id="namedview45"
     showgrid="false"
     inkscape:zoom="0.43523316"
     inkscape:cx="319.80039"
     inkscape:cy="121.7407"
     inkscape:window-x="0"
     inkscape:window-y="0"
     inkscape:window-maximized="1"
     inkscape:current-layer="Layer_1" /><g
     id="g4578"
     transform="matrix(0.72285311,0,0,0.72285311,-25.802817,86.446496)"><path
       id="path4580"
       d="M 507.9,241 469,219.5 v -77.4 c 0,-3 0,-5.8 -2.7,-7.3 L 374.4,82.2 c -2.6,-1.5 -7.2,-1.5 -9.8,0 -2.6,1.5 -5.6,4.3 -5.6,7.3 V 224 H 328 V 89.5 c 0,-2.3 0.9,-4.6 -0.8,-6.2 L 278.9,37.6 c -3.2,-3 -7.8,-3 -11,0 l -50.7,45.7 c -1.7,1.6 -4.2,3.8 -4.2,6.2 V 224 H 182 V 89.5 c 0,-3 0.2,-5.8 -2.4,-7.3 -2.6,-1.5 -5,-1.5 -7.6,0 l -91.4,52.6 c -2.6,1.5 -5.6,4.3 -5.6,7.3 v 77.6 l -32.3,21.4 c -2.5,1.6 -3.1,4.4 -3,7.3 0.1,3 2.2,5.7 4.7,7.1 l 39.4,22.2 c 1.3,0.7 2.9,1.1 4.3,1.1 2.9,0 5.8,-1.5 7.4,-4.3 2.3,-4 0.9,-9.2 -3.1,-11.5 L 65.6,247.8 89.9,231.4 c 2.5,-1.5 2.1,-4.2 2.1,-7.1 v -77.5 l 73,-42.7 v 127.3 c 0,4.7 7.5,8.6 12.1,8.6 h 47.8 c 4.7,0 5.1,-3.9 5.1,-8.6 V 93.1 l 41,-37.9 41,37.9 v 138.3 c 0,4.7 6.6,8.6 11.3,8.6 H 371 c 4.7,0 4,-3.9 4,-8.6 V 103.9 l 77,43 v 77.4 c 0,3 3.3,5.8 5.9,7.3 l 30,16.9 -23.7,14.7 c -4,2.4 -5,7.6 -2.6,11.6 2.4,4 7.7,5.2 11.7,2.8 l 36.3,-22.1 c 2.5,-1.5 3.3,-4.3 3.3,-7.3 -0.1,-2.9 -2.4,-5.7 -5,-7.2 z"
       inkscape:connector-curvature="0"
       style="fill:#f46c39" /><g
       id="g4582"><path
         id="path4584"
         d="m 524.6,170.5 c 0,-15.6 8.8,-27.9 28.7,-27.9 7.9,0 23.1,2.1 23.1,11 0,3.1 -2.1,6.3 -7.1,6.3 -1.2,0 -2.2,-0.2 -3.7,-0.6 -3.3,-1.5 -6.1,-3 -11,-3 -10,0 -13.8,5.2 -13.8,14.1 v 21.3 c 0,8.9 3.9,14.3 13.8,14.3 4.9,0 7.7,-1.5 11,-3 1.2,-0.4 2.1,-0.7 3.6,-0.7 5.2,0 7.3,3.3 7.3,6.4 0,8.8 -15.2,11 -23.2,11 -19.8,0 -28.6,-12.4 -28.6,-28 v -21.2 z"
         inkscape:connector-curvature="0"
         style="fill:#ffffff" /><path
         id="path4586"
         d="m 599.8,219.8 c -4.6,0 -8,-3.3 -8,-7.6 v -62.1 c 0,-4 3.4,-7.4 8,-7.4 4.5,0 8,3.4 8,7.4 v 62.1 c 0,4.3 -3.5,7.6 -8,7.6 z m 7.4,-108 c 1.5,-1.5 2.4,-2.2 4.9,-2.2 2.8,0 6,2.5 6,6.1 0,1.5 -0.6,2.8 -1.9,4.2 L 605,131.5 c -1.8,1.9 -3.3,3 -5.8,3 -3.3,0 -6.3,-2.5 -6.3,-6.3 0,-3.6 8.5,-10.6 12.8,-14.9 l 1.5,-1.5 z"
         inkscape:connector-curvature="0"
         style="fill:#ffffff" /><path
         id="path4588"
         d="m 682,156.5 c -6.6,18.3 -12.5,36.8 -18.9,55.3 -1.9,5.7 -4.8,7.9 -9.7,7.9 -5.4,0 -7.9,-2.2 -9.8,-7.7 -6.3,-18.5 -12.8,-37.1 -19.2,-55.7 l -1.6,-5.8 c 0,-0.3 -0.2,-0.6 -0.2,-0.9 0,-4 4,-7 8,-7 3,0 6.4,1.9 7.4,5.2 2.7,8.8 5.5,17.7 8.3,26.5 2.7,8.8 4.6,17.6 7,26.4 2.2,-8.8 4,-17.6 6.7,-26.4 2.7,-8.8 5.4,-17.6 8.2,-26.5 0.9,-3 4.3,-5.1 7.4,-5.1 4.2,0 7.7,3 7.7,7.1 0,0.3 0,0.6 0,0.9 l -1.3,5.8 z"
         inkscape:connector-curvature="0"
         style="fill:#ffffff" /><path
         id="path4590"
         d="m 706.3,129.7 c -5.4,0 -9.4,-4 -9.4,-8.8 0,-4.9 4,-8.8 9.4,-8.8 5.2,0 9.4,4 9.4,8.8 -0.2,4.9 -4.2,8.8 -9.4,8.8 z m 0,89.9 c -4.6,0 -8,-3.1 -8,-7.4 v -62.1 c 0,-4 3.4,-7.4 8,-7.4 4.5,0 8,3.4 8,7.4 v 62.1 c 0,4.3 -3.6,7.4 -8,7.4 z"
         inkscape:connector-curvature="0"
         style="fill:#ffffff" /><path
         id="path4592"
         d="m 732.8,170.5 c 0,-15.6 8.8,-27.9 28.7,-27.9 7.9,0 23.1,2.1 23.1,11 0,3.1 -2.1,6.3 -7.2,6.3 -1.2,0 -2.2,-0.2 -3.7,-0.6 -3.3,-1.5 -6.1,-3 -11,-3 -10,0 -13.9,5.2 -13.9,14.1 v 21.3 c 0,8.9 3.9,14.3 13.9,14.3 4.9,0 7.7,-1.5 11,-3 1.2,-0.4 2.1,-0.7 3.6,-0.7 5.2,0 7.3,3.3 7.3,6.4 0,8.8 -15.2,11 -23.2,11 -19.8,0 -28.6,-12.4 -28.6,-28 v -21.2 z"
         inkscape:connector-curvature="0"
         style="fill:#ffffff" /><path
         id="path4594"
         d="m 835.6,169 c 0,-8.8 -4.5,-13.1 -13.7,-13.1 -3.9,0 -6.3,0.9 -8.8,1.9 l -2.8,1.2 c -0.9,0.5 -2.5,0.7 -3.9,0.7 -4.3,0 -6.1,-3.4 -6.1,-6.6 0,-7.9 11.5,-11 23.1,-11 20.1,0 28.3,10.6 28.3,30.4 v 30.2 c 0,3.7 1.5,4.3 3.7,4.8 3.1,0.6 4.5,2.5 4.5,5.4 0,4.2 -3.1,6.3 -8.8,6.3 -5.2,0 -9.1,-2.1 -11.9,-6.7 -5.5,4.8 -12.1,7.1 -20.3,7.1 -16.2,0 -24.6,-9.1 -24.6,-22.9 v -0.4 c 0,-14.9 9.2,-22.5 27.8,-22.5 4.6,0 9.1,0.6 13.4,1.8 V 169 z m -25.4,27.4 v 0.4 c 0,6 3,9.4 11.2,9.4 5.1,0 9.5,-1.5 14.1,-5.2 v -13.4 c -4.3,-1 -9.2,-1.6 -13,-1.6 -10.3,0 -12.3,4.8 -12.3,10.4 z"
         inkscape:connector-curvature="0"
         style="fill:#ffffff" /></g><g
       id="g4596"><path
         id="path4598"
         d="m 912.8,145.5 v -27.4 c 0,-4 2.8,-7.3 8,-7.3 5.1,0 8,3.3 8,7.3 v 82.4 c 0,3.1 0.9,4.9 3.3,7 1,1.2 1.6,2.4 1.6,4 0,4.6 -3.9,7.2 -7.4,7.2 -3.6,0 -6.4,-2.1 -8.5,-5.2 -6.9,3.7 -13.6,6.3 -21,6.3 -16.5,0 -25.5,-11.6 -25.5,-28.7 V 173 c 0,-17.7 6.4,-30.4 26.5,-30.4 4.9,0.1 9.6,0.8 15,2.9 z m 0,13.2 c -4.8,-1.8 -10,-2.5 -13,-2.5 -9.1,0 -12.4,5.4 -12.4,16.8 v 17.9 c 0,9.7 3.9,14.9 12.1,14.9 3.9,0 8.6,-1.3 13.5,-3.7 -0.3,-1.2 -0.3,-2.2 -0.3,-3.1 v -40.3 z"
         inkscape:connector-curvature="0"
         style="fill:#ffffff" /><path
         id="path4600"
         d="m 960.7,129.6 c -5.4,0 -9.4,-4 -9.4,-8.8 0,-4.9 4,-8.8 9.4,-8.8 5.2,0 9.4,4 9.4,8.8 -0.1,4.9 -4.2,8.8 -9.4,8.8 z m 0,89.9 c -4.6,0 -8,-3.1 -8,-7.4 V 150 c 0,-4 3.4,-7.4 8,-7.4 4.5,0 8,3.4 8,7.4 v 62.1 c 0.1,4.3 -3.5,7.4 -8,7.4 z"
         inkscape:connector-curvature="0"
         style="fill:#ffffff" /><path
         id="path4602"
         d="m 1032.4,147.1 c 3.6,-5.8 8.8,-8.5 12.5,-8.5 3.7,0 7.6,3.1 7.6,7 0,1.9 -1,3.4 -1.8,4.2 l -2.2,2.2 c -3.9,3.9 -5.2,5.5 -5.1,10 v 8.8 c 0,15.3 -9.7,27 -29.5,27 -3.4,0 -7,-0.3 -10,-1.3 -1,2.2 -1.3,3.7 -1.3,5.2 0,4.6 3.6,5.7 6.1,5.7 h 6.3 c 18.2,0 32,7 32,22.3 0,15.3 -13.9,24.9 -32.8,24.9 -18.2,0 -30.8,-8.8 -30.8,-23.5 0,-6.6 2.7,-11.8 8.6,-17 -2.8,-3.9 -3.7,-8.6 -3.7,-11.9 0,-3.3 1.2,-7.5 4.9,-11.5 -5.8,-5.2 -8.8,-12.4 -8.8,-20.9 0,-15.8 9.7,-27.7 28.1,-27.7 7.4,0 13.8,1.8 19.9,5 z m -29.1,73.5 c -2.7,2.7 -3.9,5.4 -3.9,8.9 0,7.2 4.9,11.3 15,11.3 9.5,0 16.4,-3.7 16.4,-10.9 0,-6.1 -5.1,-8.9 -15.6,-8.9 h -3.1 c -3.1,0 -6.1,-0.3 -8.8,-0.4 z m 24.2,-61.6 c -4.3,-2.2 -8.3,-3.6 -12.8,-3.6 -9.4,0 -14.1,5.2 -14.1,14.6 0,8.6 4,14.3 13.7,14.3 8.9,0 13.1,-5.1 13.1,-13.3 v -4.8 c -0.1,-2.2 -0.1,-4.8 0.1,-7.2 z"
         inkscape:connector-curvature="0"
         style="fill:#ffffff" /><path
         id="path4604"
         d="m 1073.5,129.6 c -5.4,0 -9.4,-4 -9.4,-8.8 0,-4.9 4,-8.8 9.4,-8.8 5.2,0 9.4,4 9.4,8.8 -0.2,4.9 -4.2,8.8 -9.4,8.8 z m 0,89.9 c -4.6,0 -8,-3.1 -8,-7.4 V 150 c 0,-4 3.4,-7.4 8,-7.4 4.5,0 8,3.4 8,7.4 v 62.1 c 0,4.3 -3.6,7.4 -8,7.4 z"
         inkscape:connector-curvature="0"
         style="fill:#ffffff" /><path
         id="path4606"
         d="m 1103.5,127.9 c 0,-4.2 2.8,-7.4 8,-7.4 5.1,0 8,3.4 8,7.4 v 18.5 h 13.3 c 4.2,0 7.6,3.1 7.6,7.3 0,4 -3.4,7.2 -7.6,7.2 h -13.3 V 187 c 0,13.1 1.2,17.9 10.1,17.9 1,0 2.1,-0.1 2.7,-0.1 6.4,0 10,1.6 10,6.7 0,6.9 -5.7,7.7 -11.5,7.7 -21.9,0 -27.4,-10.7 -27.4,-31.1 v -60.2 z"
         inkscape:connector-curvature="0"
         style="fill:#ffffff" /><path
         id="path4608"
         d="m 1191.3,168.9 c 0,-8.8 -4.5,-13.1 -13.7,-13.1 -3.9,0 -6.3,0.9 -8.8,1.9 l -2.8,1.2 c -0.9,0.5 -2.5,0.7 -3.9,0.7 -4.3,0 -6.1,-3.4 -6.1,-6.6 0,-7.9 11.5,-11 23.1,-11 20.1,0 28.3,10.6 28.3,30.4 v 30.2 c 0,3.7 1.5,4.3 3.7,4.8 3.1,0.6 4.5,2.5 4.5,5.4 0,4.2 -3.1,6.3 -8.8,6.3 -5.2,0 -9.1,-2.1 -11.9,-6.7 -5.5,4.8 -12.1,7.1 -20.3,7.1 -16.2,0 -24.6,-9.1 -24.6,-22.9 v -0.4 c 0,-14.9 9.2,-22.5 27.9,-22.5 4.6,0 9.1,0.6 13.4,1.8 v -6.6 z m -25.3,27.4 v 0.4 c 0,6 3,9.4 11.2,9.4 5.1,0 9.5,-1.5 14.1,-5.2 v -13.4 c -4.3,-1 -9.2,-1.6 -13,-1.6 -10.4,0 -12.3,4.7 -12.3,10.4 z"
         inkscape:connector-curvature="0"
         style="fill:#ffffff" /><path
         id="path4610"
         d="m 1229.1,203.3 v -85 c 0,-4 3.4,-7.4 8,-7.4 4.5,0 8,3.3 8,7.4 v 84.2 c 0,3.1 0.1,4.5 2.1,6.6 1,1 1.9,1.9 1.9,4 0,4.2 -3.3,6.7 -8.3,6.7 -4.7,-0.1 -11.7,-2.1 -11.7,-16.5 z"
         inkscape:connector-curvature="0"
         style="fill:#ffffff" /></g></g></svg>