<?xml version="1.0" encoding="utf-8"?>
<!-- Generator: Adobe Illustrator 16.0.0, SVG Export Plug-In . SVG Version: 6.00 Build 0)  -->
<!DOCTYPE svg PUBLIC "-//W3C//DTD SVG 1.1//EN" "http://www.w3.org/Graphics/SVG/1.1/DTD/svg11.dtd">
<svg version="1.1" id="Layer_1" xmlns="http://www.w3.org/2000/svg" xmlns:xlink="http://www.w3.org/1999/xlink" x="0px" y="0px"
	 width="772px" height="400px" viewBox="0 0 772 400" enable-background="new 0 0 772 400" xml:space="preserve">
<g>
	<g>
		<path fill="#3AB1CF" d="M101.936,259.297c-17.083-18.757-26.493-43.072-26.493-68.461c0-23.574,8.249-46.547,23.223-64.693
			c14.778-17.909,35.371-30.322,57.98-34.946c3.318-0.679,6.713-1.197,10.097-1.541l-1.083-10.652
			c-3.736,0.38-7.492,0.954-11.161,1.704c-24.997,5.118-47.758,18.833-64.09,38.621c-16.554,20.06-25.671,45.454-25.671,71.508
			c0,28.063,10.399,54.938,29.283,75.671c18.756,20.592,44.288,33.442,71.892,36.182l1.058-10.652
			C142.004,289.557,118.908,277.93,101.936,259.297z"/>
		<path fill="#3AB1CF" d="M260.273,115.164c-18.755-20.593-44.285-33.444-71.892-36.186l-5.88-0.583v107.087h-39.607v10.706h39.607
			v106.503h5.862l0.27-0.026c27.547-2.799,53.019-15.671,71.72-36.249c18.832-20.721,29.204-47.564,29.204-75.58
			C289.558,162.77,279.159,135.896,260.273,115.164z M252.432,259.215c-15.634,17.201-36.492,28.453-59.227,32.062l0.002-95.089
			h52.042l-13.434,12.48l7.302,7.84l27.608-25.67l-27.608-25.671l-7.302,7.838l13.424,12.478h-52.032V90.392
			c22.697,3.604,43.521,14.821,59.152,31.979c17.085,18.758,26.493,43.071,26.493,68.465
			C278.852,216.186,269.469,240.471,252.432,259.215z"/>
	</g>
	<g>
		<g>
			<path fill="#FFFFFF" d="M352.84,178.525c2.503,0,4.906-0.363,7.21-1.087c2.304-0.725,4.356-1.788,6.156-3.194
				c1.8-1.403,3.282-3.136,4.446-5.201c1.162-2.063,1.831-4.455,2.006-7.178h7.576c-0.177,3.382-1.021,6.497-2.537,9.351
				c-1.515,2.854-3.512,5.312-5.991,7.374c-2.48,2.065-5.345,3.678-8.595,4.84c-3.249,1.164-6.672,1.747-10.271,1.747
				c-5.003,0-9.394-0.913-13.169-2.733c-3.774-1.82-6.946-4.334-9.515-7.541c-2.568-3.203-4.499-6.968-5.794-11.292
				c-1.296-4.322-1.942-8.986-1.942-13.993v-2.765c0-5.006,0.646-9.667,1.942-13.994c1.295-4.32,3.216-8.073,5.76-11.259
				c2.546-3.18,5.72-5.692,9.516-7.539c3.796-1.845,8.175-2.766,13.138-2.766c3.819,0,7.362,0.595,10.635,1.779
				c3.271,1.185,6.124,2.876,8.559,5.07c2.438,2.195,4.377,4.864,5.829,8.001c1.449,3.137,2.262,6.638,2.438,10.5h-7.576
				c-0.175-2.895-0.799-5.486-1.873-7.771c-1.078-2.28-2.504-4.233-4.281-5.857c-1.777-1.626-3.843-2.864-6.188-3.722
				c-2.349-0.856-4.865-1.286-7.54-1.286c-4.081,0-7.539,0.791-10.37,2.372c-2.832,1.582-5.147,3.71-6.947,6.389
				c-1.801,2.675-3.106,5.749-3.918,9.217c-0.812,3.469-1.218,7.09-1.218,10.865v2.765c0,3.818,0.406,7.475,1.218,10.963
				c0.812,3.49,2.107,6.564,3.885,9.22c1.777,2.653,4.105,4.773,6.98,6.354C345.279,177.732,348.758,178.525,352.84,178.525z"/>
			<path fill="#FFFFFF" d="M408.744,84.299h9.547l-15.209,18.371h-6.914L408.744,84.299z M404.662,183.859h-7.902v-71.247h7.902
				V183.859z"/>
			<path fill="#FFFFFF" d="M448.186,172.992l21.664-60.38h8.099l-26.601,71.247h-6.389l-26.732-71.247h8.099L448.186,172.992z"/>
			<path fill="#FFFFFF" d="M490.393,92.004c0-1.492,0.482-2.756,1.449-3.787c0.965-1.032,2.283-1.547,3.951-1.547
				s2.996,0.516,3.984,1.547c0.985,1.031,1.479,2.295,1.479,3.787c0,1.491-0.494,2.744-1.479,3.751
				c-0.988,1.011-2.316,1.517-3.984,1.517s-2.986-0.506-3.951-1.517C490.875,94.748,490.393,93.495,490.393,92.004z
				 M499.678,183.859h-7.901v-71.247h7.901V183.859z"/>
			<path fill="#FFFFFF" d="M547.416,178.525c2.504,0,4.906-0.363,7.211-1.087c2.303-0.725,4.355-1.788,6.158-3.194
				c1.797-1.403,3.279-3.136,4.44-5.201c1.162-2.063,1.834-4.455,2.009-7.178h7.571c-0.176,3.382-1.02,6.497-2.532,9.351
				c-1.514,2.854-3.513,5.312-5.992,7.374c-2.48,2.065-5.347,3.678-8.594,4.84c-3.246,1.164-6.675,1.747-10.271,1.747
				c-5.002,0-9.393-0.913-13.17-2.733c-3.775-1.821-6.945-4.334-9.514-7.541c-2.568-3.203-4.5-6.968-5.797-11.292
				c-1.294-4.322-1.939-8.986-1.939-13.993v-2.765c0-5.006,0.646-9.667,1.939-13.994c1.297-4.32,3.219-8.073,5.764-11.259
				c2.545-3.18,5.717-5.692,9.518-7.539c3.795-1.845,8.172-2.766,13.135-2.766c3.818,0,7.363,0.595,10.636,1.779
				c3.266,1.185,6.119,2.876,8.559,5.07c2.438,2.195,4.379,4.864,5.826,8.001c1.449,3.137,2.26,6.638,2.436,10.5h-7.571
				c-0.174-2.895-0.802-5.486-1.873-7.771c-1.078-2.28-2.504-4.233-4.281-5.857c-1.777-1.626-3.844-2.864-6.189-3.722
				c-2.348-0.856-4.86-1.286-7.539-1.286c-4.084,0-7.541,0.791-10.372,2.372c-2.832,1.582-5.146,3.71-6.947,6.389
				c-1.799,2.675-3.105,5.749-3.916,9.217c-0.812,3.469-1.217,7.09-1.217,10.865v2.765c0,3.818,0.403,7.475,1.217,10.963
				c0.811,3.49,2.104,6.564,3.885,9.22c1.777,2.653,4.104,4.773,6.979,6.354C539.855,177.732,543.334,178.525,547.416,178.525z"/>
			<path fill="#FFFFFF" d="M635.518,183.859c-0.438-1.228-0.778-2.733-1.021-4.511c-0.24-1.777-0.404-3.589-0.49-5.433
				c-1.188,1.537-2.592,2.984-4.217,4.344c-1.623,1.362-3.447,2.548-5.465,3.557c-2.021,1.011-4.238,1.821-6.65,2.438
				c-2.412,0.614-5.024,0.921-7.836,0.921c-3.467,0-6.617-0.507-9.447-1.515c-2.832-1.011-5.25-2.426-7.243-4.246
				c-1.998-1.823-3.546-3.963-4.642-6.423c-1.102-2.455-1.647-5.135-1.647-8.032c0-3.466,0.745-6.595,2.237-9.382
				c1.49-2.789,3.646-5.158,6.455-7.112c2.808-1.951,6.222-3.445,10.238-4.479c4.016-1.03,8.524-1.547,13.531-1.547h14.616v-8.099
				c0-5.091-1.567-9.096-4.709-12.014c-3.139-2.921-7.713-4.379-13.729-4.379c-2.764,0-5.312,0.371-7.637,1.117
				c-2.328,0.746-4.336,1.778-6.027,3.095c-1.688,1.317-3.006,2.844-3.949,4.575c-0.942,1.736-1.416,3.588-1.416,5.567l-7.899-0.067
				c0-2.677,0.659-5.27,1.975-7.771c1.316-2.5,3.172-4.729,5.562-6.684c2.396-1.95,5.271-3.521,8.628-4.706
				c3.358-1.185,7.079-1.779,11.163-1.779c3.771,0,7.253,0.485,10.437,1.449c3.182,0.968,5.914,2.416,8.197,4.344
				c2.278,1.933,4.059,4.348,5.334,7.245c1.271,2.896,1.907,6.28,1.907,10.14v34.502c0,1.229,0.046,2.503,0.132,3.822
				c0.088,1.317,0.231,2.591,0.43,3.817c0.199,1.23,0.43,2.405,0.69,3.521c0.265,1.119,0.57,2.099,0.921,2.93v0.792h-8.429V183.859z
				 M610.76,178.196c2.853,0,5.498-0.361,7.938-1.088c2.436-0.722,4.641-1.719,6.612-2.993c1.978-1.274,3.689-2.756,5.14-4.446
				s2.61-3.522,3.487-5.5V148.5h-13.495c-4.041,0-7.65,0.361-10.837,1.083c-3.182,0.728-5.868,1.771-8.063,3.129
				c-2.195,1.362-3.875,3.021-5.035,4.972c-1.166,1.953-1.746,4.162-1.746,6.617c0,1.933,0.371,3.743,1.121,5.433
				c0.746,1.692,1.81,3.16,3.189,4.41c1.385,1.253,3.063,2.242,5.041,2.964C606.082,177.835,608.303,178.196,610.76,178.196z"/>
		</g>
		<g>
			<g>
				<path fill="#FFFFFF" d="M347.431,259.514c0-5.531,0.638-10.522,1.908-14.979c1.272-4.453,3.095-8.265,5.468-11.423
					c2.369-3.161,5.254-5.6,8.656-7.311c3.402-1.712,7.232-2.568,11.489-2.568c5.049,0,9.383,1.013,13.006,3.029
					c3.619,2.021,6.617,4.81,8.986,8.364v-39.97h7.836v101.137h-7.377l-0.326-9.479c-2.371,3.379-5.392,6.025-9.053,7.935
					c-3.666,1.91-8.068,2.865-13.204,2.865c-4.214,0-8.013-0.892-11.393-2.668c-3.38-1.779-6.254-4.259-8.623-7.439
					c-2.373-3.186-4.194-6.989-5.468-11.426c-1.271-4.435-1.908-9.326-1.908-14.685v-1.383H347.431z M355.397,260.896
					c0,4.172,0.417,8.047,1.251,11.621c0.834,3.577,2.107,6.686,3.819,9.318c1.711,2.634,3.873,4.698,6.484,6.188
					c2.612,1.492,5.717,2.238,9.319,2.238c2.676,0,5.102-0.316,7.274-0.955c2.174-0.635,4.104-1.521,5.793-2.664
					c1.691-1.141,3.162-2.502,4.412-4.084c1.254-1.578,2.316-3.291,3.193-5.137v-33.449c-0.789-1.802-1.754-3.533-2.896-5.199
					c-1.141-1.67-2.545-3.149-4.215-4.448c-1.668-1.293-3.6-2.324-5.793-3.095c-2.197-0.768-4.742-1.153-7.641-1.153
					c-3.643,0-6.781,0.76-9.415,2.274c-2.635,1.516-4.808,3.588-6.519,6.222c-1.712,2.635-2.985,5.752-3.819,9.35
					c-0.835,3.603-1.252,7.463-1.252,11.591v1.383H355.397z"/>
				<path fill="#FFFFFF" d="M425.064,203.939c0-1.49,0.479-2.754,1.446-3.788c0.965-1.032,2.281-1.545,3.951-1.545
					c1.666,0,2.994,0.514,3.982,1.545c0.987,1.034,1.481,2.297,1.481,3.788c0,1.494-0.494,2.744-1.481,3.754
					c-0.988,1.009-2.316,1.516-3.982,1.516c-1.67,0-2.986-0.507-3.951-1.516C425.545,206.684,425.064,205.434,425.064,203.939z
					 M434.348,295.793h-7.901v-71.242h7.901V295.793z"/>
				<path fill="#FFFFFF" d="M452.584,259.514c0-5.531,0.627-10.522,1.879-14.979c1.25-4.453,3.062-8.265,5.432-11.423
					c2.373-3.161,5.259-5.6,8.658-7.311c3.402-1.712,7.256-2.568,11.558-2.568c5.092,0,9.459,1.021,13.104,3.062
					c3.646,2.044,6.652,4.886,9.021,8.529l0.395-10.271h7.373v69.992c0,4.611-0.68,8.748-2.039,12.413
					c-1.363,3.665-3.281,6.771-5.762,9.316c-2.48,2.548-5.478,4.498-8.988,5.859c-3.51,1.361-7.44,2.045-11.787,2.045
					c-2.237,0-4.521-0.255-6.848-0.759c-2.326-0.505-4.576-1.262-6.748-2.272c-2.172-1.01-4.225-2.271-6.158-3.787
					c-1.932-1.514-3.619-3.305-5.069-5.363l4.411-4.745c2.896,3.56,5.968,6.16,9.22,7.804c3.248,1.648,6.805,2.471,10.668,2.471
					c3.379,0,6.375-0.517,8.987-1.547c2.609-1.031,4.816-2.525,6.617-4.478c1.799-1.955,3.168-4.324,4.115-7.11
					c0.94-2.789,1.414-5.957,1.414-9.515v-8.299c-2.369,3.295-5.377,5.871-9.019,7.735c-3.645,1.867-7.991,2.802-13.039,2.802
					c-4.258,0-8.075-0.892-11.457-2.668c-3.379-1.779-6.254-4.259-8.627-7.439c-2.37-3.186-4.182-6.989-5.432-11.426
					c-1.252-4.435-1.879-9.326-1.879-14.685V259.514z M460.553,260.896c0,4.172,0.418,8.047,1.252,11.621
					c0.834,3.577,2.105,6.686,3.818,9.318s3.875,4.698,6.484,6.188c2.61,1.492,5.719,2.238,9.317,2.238
					c2.724,0,5.17-0.328,7.345-0.986c2.17-0.659,4.092-1.57,5.76-2.733c1.668-1.16,3.117-2.535,4.348-4.117
					c1.227-1.575,2.281-3.312,3.158-5.198v-33.119c-0.746-1.844-1.701-3.612-2.861-5.303c-1.164-1.689-2.57-3.181-4.217-4.479
					c-1.645-1.293-3.566-2.324-5.76-3.095c-2.197-0.768-4.742-1.153-7.64-1.153c-3.643,0-6.782,0.76-9.416,2.274
					c-2.635,1.517-4.807,3.588-6.52,6.222c-1.713,2.635-2.984,5.752-3.818,9.35c-0.834,3.603-1.252,7.463-1.252,11.591
					L460.553,260.896L460.553,260.896z"/>
				<path fill="#FFFFFF" d="M530.086,203.939c0-1.49,0.482-2.754,1.449-3.788c0.965-1.032,2.285-1.545,3.953-1.545
					c1.664,0,2.992,0.514,3.981,1.545c0.988,1.034,1.48,2.297,1.48,3.788c0,1.494-0.492,2.744-1.48,3.754
					c-0.989,1.009-2.317,1.516-3.981,1.516c-1.668,0-2.988-0.507-3.953-1.516C530.568,206.684,530.086,205.434,530.086,203.939z
					 M539.369,295.793h-7.898v-71.242h7.898V295.793z"/>
				<path fill="#FFFFFF" d="M573.018,206.311v18.24h14.75v6.453h-14.75v47.475c0,2.504,0.255,4.511,0.761,6.023
					c0.504,1.514,1.184,2.701,2.039,3.557c0.856,0.855,1.846,1.428,2.965,1.713c1.117,0.287,2.291,0.427,3.521,0.427
					c1.187,0,2.326-0.074,3.424-0.229c1.101-0.154,2.089-0.297,2.964-0.43l0.332,6.453c-0.972,0.35-2.23,0.628-3.789,0.824
					c-1.56,0.199-3.105,0.297-4.642,0.297c-2.235,0-4.315-0.297-6.227-0.891c-1.906-0.594-3.543-1.613-4.902-3.062
					c-1.361-1.446-2.424-3.368-3.192-5.762c-0.769-2.392-1.15-5.366-1.15-8.922v-47.475h-13.105v-6.453h13.105v-18.24h7.897V206.311
					z"/>
				<path fill="#FFFFFF" d="M649.07,295.793c-0.438-1.227-0.779-2.73-1.021-4.506c-0.24-1.779-0.406-3.588-0.494-5.434
					c-1.188,1.535-2.594,2.986-4.215,4.344c-1.625,1.361-3.447,2.548-5.465,3.557c-2.019,1.014-4.236,1.822-6.65,2.438
					c-2.414,0.613-5.026,0.922-7.836,0.922c-3.469,0-6.619-0.508-9.448-1.514c-2.828-1.013-5.246-2.427-7.244-4.248
					c-1.994-1.82-3.545-3.963-4.642-6.42c-1.098-2.462-1.647-5.138-1.647-8.035c0-3.465,0.746-6.595,2.237-9.381
					c1.496-2.787,3.646-5.16,6.457-7.113c2.81-1.951,6.222-3.445,10.236-4.479c4.018-1.029,8.525-1.546,13.535-1.546h14.615v-8.099
					c0-5.094-1.566-9.1-4.709-12.018c-3.14-2.92-7.714-4.379-13.728-4.379c-2.768,0-5.312,0.373-7.639,1.119
					c-2.328,0.744-4.338,1.775-6.023,3.092c-1.694,1.319-3.008,2.846-3.951,4.58c-0.944,1.73-1.418,3.588-1.418,5.564l-7.897-0.068
					c0-2.676,0.656-5.266,1.973-7.77c1.316-2.502,3.17-4.73,5.564-6.685c2.393-1.953,5.268-3.522,8.627-4.709
					c3.358-1.187,7.078-1.776,11.158-1.776c3.776,0,7.256,0.482,10.438,1.448c3.183,0.966,5.914,2.414,8.199,4.347
					c2.281,1.932,4.059,4.346,5.332,7.242c1.271,2.897,1.91,6.279,1.91,10.142v34.503c0,1.229,0.045,2.504,0.131,3.818
					c0.088,1.315,0.229,2.592,0.43,3.819c0.197,1.23,0.428,2.406,0.688,3.523c0.266,1.116,0.573,2.098,0.922,2.928v0.789h-8.426
					V295.793z M624.314,290.134c2.852,0,5.495-0.362,7.934-1.087c2.436-0.725,4.639-1.723,6.617-2.998
					c1.977-1.271,3.688-2.752,5.135-4.443c1.449-1.688,2.611-3.521,3.49-5.498v-15.672h-13.498c-4.041,0-7.65,0.365-10.832,1.09
					c-3.184,0.72-5.873,1.764-8.066,3.127c-2.194,1.361-3.873,3.019-5.037,4.969c-1.161,1.956-1.741,4.162-1.741,6.619
					c0,1.933,0.369,3.742,1.116,5.433c0.744,1.691,1.812,3.162,3.193,4.411c1.383,1.25,3.062,2.239,5.037,2.964
					C619.638,289.773,621.854,290.134,624.314,290.134z"/>
				<path fill="#FFFFFF" d="M685.154,295.793h-7.9V194.656h7.9V295.793z"/>
			</g>
		</g>
	</g>
</g>
</svg>
