<?xml version="1.0" encoding="utf-8"?>
<!-- Generator: Adobe Illustrator 18.1.1, SVG Export Plug-In . SVG Version: 6.00 Build 0)  -->
<svg version="1.1" id="Layer_1" xmlns="http://www.w3.org/2000/svg" xmlns:xlink="http://www.w3.org/1999/xlink" x="0px" y="0px"
	 viewBox="0 0 80 81" enable-background="new 0 0 80 81" xml:space="preserve">
<path fill="#F46C39" d="M71.1,23.4C71.1,23.4,71.1,23.3,71.1,23.4c0-0.1,0-0.2-0.1-0.3c0,0,0,0,0,0c0-0.1-0.1-0.2-0.1-0.3
	c0,0,0,0,0-0.1c0,0,0-0.1-0.1-0.1c0,0,0,0,0-0.1c0,0,0,0,0-0.1c0-0.1-0.1-0.1-0.1-0.2c0,0,0,0,0,0c-0.1-0.1-0.1-0.1-0.2-0.2
	c0,0,0,0,0,0c-0.1-0.1-0.1-0.1-0.2-0.1c0,0,0,0,0,0c-0.1-0.1-0.2-0.1-0.2-0.1c0,0,0,0,0,0l-9.1-4.4v-2.8c0,0,0,0,0,0
	c0-0.1,0-0.2,0-0.3c0,0,0,0,0-0.1c0-0.1,0-0.2-0.1-0.2c0,0,0,0,0,0c0-0.1-0.1-0.2-0.1-0.3c0,0,0,0,0,0c0,0,0-0.1-0.1-0.1
	c0,0,0,0,0-0.1c0,0,0,0,0-0.1c0-0.1-0.1-0.1-0.1-0.2c0,0,0,0,0,0c-0.1-0.1-0.1-0.1-0.2-0.2c0,0,0,0,0,0c-0.1-0.1-0.1-0.1-0.2-0.1
	c0,0,0,0,0,0c-0.1,0-0.2-0.1-0.2-0.1c0,0,0,0,0,0L40.9,3.6c-0.6-0.3-1.3-0.3-1.9,0l-18.5,8.9c0,0,0,0,0,0c-0.1,0-0.2,0.1-0.2,0.1
	c0,0,0,0,0,0c-0.1,0-0.1,0.1-0.2,0.2c0,0,0,0,0,0c-0.1,0.1-0.1,0.1-0.2,0.2c0,0,0,0,0,0c-0.1,0.1-0.1,0.1-0.1,0.2c0,0,0,0,0,0.1
	c0,0,0,0,0,0.1c0,0,0,0.1-0.1,0.1c0,0,0,0,0,0.1c0,0.1-0.1,0.2-0.1,0.3c0,0,0,0,0,0c0,0.1,0,0.2-0.1,0.2c0,0,0,0,0,0.1
	c0,0.1,0,0.2,0,0.3c0,0,0,0,0,0v2.8l-9.1,4.4c0,0,0,0,0,0c-0.1,0-0.2,0.1-0.2,0.1c0,0,0,0,0,0c-0.1,0-0.1,0.1-0.2,0.2c0,0,0,0,0,0
	c-0.1,0.1-0.1,0.1-0.2,0.2c0,0,0,0,0,0c-0.1,0.1-0.1,0.1-0.1,0.2c0,0,0,0,0,0.1c0,0,0,0,0,0.1c0,0,0,0.1-0.1,0.1c0,0,0,0,0,0.1
	C9.1,22.9,9,23,9,23c0,0,0,0,0,0c0,0.1,0,0.2-0.1,0.2c0,0,0,0,0,0.1c0,0.1,0,0.2,0,0.3c0,0,0,0,0,0v35.7c0,0.8,0.4,1.5,1.1,1.9
	l28.9,16c0,0,0,0,0,0c0.1,0,0.2,0.1,0.2,0.1c0,0,0,0,0,0c0.1,0,0.1,0,0.2,0.1c0,0,0,0,0.1,0c0.1,0,0.1,0,0.2,0c0,0,0,0,0.1,0
	c0.1,0,0.2,0,0.3,0c0.1,0,0.2,0,0.3,0c0,0,0,0,0.1,0c0.1,0,0.1,0,0.2,0c0,0,0,0,0.1,0c0.1,0,0.1,0,0.2-0.1c0,0,0,0,0,0
	c0.1,0,0.2-0.1,0.2-0.1c0,0,0,0,0,0l28.9-16c0.7-0.4,1.1-1.1,1.1-1.9V23.7c0,0,0,0,0,0C71.1,23.6,71.1,23.5,71.1,23.4z M64.2,23.8
	l-3.5,1.9v-3.6L64.2,23.8z M42.2,36V26l14.2-7.9v10L42.2,36z M23.6,18.2L37.8,26v10l-14.2-7.9V18.2z M40,8l13.8,6.6L40,22.3
	l-13.8-7.7L40,8z M19.3,25.7l-3.5-1.9l3.5-1.7V25.7z M13.3,27.4l7.2,4c0,0,0,0,0,0L37.8,41v1.5v29.3L13.3,58.1L13.3,27.4L13.3,27.4z
	 M42.2,71.7V42.5V41l17.4-9.7c0,0,0,0,0,0l7.2-4v30.8L42.2,71.7z"/>
</svg>
