<?xml version="1.0" encoding="utf-8"?>
<!-- Generator: Adobe Illustrator 18.1.1, SVG Export Plug-In . SVG Version: 6.00 Build 0)  -->
<svg version="1.1" id="Layer_1" xmlns="http://www.w3.org/2000/svg" xmlns:xlink="http://www.w3.org/1999/xlink" x="0px" y="0px"
	 viewBox="0 0 80 72" enable-background="new 0 0 80 72" xml:space="preserve">
<g>
	<path fill="#F46C39" stroke="#F46C39" stroke-width="1.9064" stroke-miterlimit="10" d="M64.7,58.4H15.3c-5.1,0-9.2-4.1-9.2-9.2v-8
		c0-2.3,1.4-4.3,3.5-5.1l3.7-1.4L18.8,23c1.2-2.6,3.8-4.2,6.6-4.2h29.2c2.8,0,5.4,1.7,6.6,4.2l5.3,11.4l4.1,1.7
		c2,0.9,3.3,2.9,3.3,5.1v7.9C73.9,54.3,69.8,58.4,64.7,58.4z M25.4,21.7c-1.7,0-3.3,1-4.1,2.6l-5.6,12.1c-0.2,0.3-0.4,0.6-0.8,0.7
		l-4.3,1.6c-1,0.4-1.7,1.4-1.7,2.5v8c0,3.5,2.9,6.4,6.4,6.4h49.4c3.5,0,6.4-2.9,6.4-6.4v-7.9c0-1.1-0.6-2.1-1.6-2.5l-4.5-1.9
		c-0.3-0.1-0.6-0.4-0.7-0.7l-5.5-11.9c-0.7-1.6-2.3-2.6-4.1-2.6C54.6,21.7,25.4,21.7,25.4,21.7z"/>
	<path fill="#F46C39" stroke="#F46C39" stroke-width="1.9064" stroke-miterlimit="10" d="M40.1,41.7c-14.3,0-27-2.8-32.4-7.3
		c-0.6-0.5-0.7-1.4-0.2-2c0.5-0.6,1.4-0.7,2-0.2c4.8,3.9,17.1,6.6,30.6,6.6c13.3,0,25.5-2.6,30.5-6.5c0.6-0.5,1.5-0.4,2,0.2
		c0.5,0.6,0.4,1.5-0.2,2C66.8,38.9,54.2,41.7,40.1,41.7z"/>
	<path fill="#F46C39" stroke="#F46C39" stroke-width="0.8828" stroke-miterlimit="10" d="M17.2,51.5c-2.3,0-4.2-1.9-4.2-4.2
		c0-2.3,1.9-4.2,4.2-4.2c2.3,0,4.2,1.9,4.2,4.2C21.5,49.6,19.6,51.5,17.2,51.5z M17.2,45.8c-0.8,0-1.4,0.6-1.4,1.4
		c0,0.8,0.6,1.4,1.4,1.4c0.8,0,1.4-0.6,1.4-1.4C18.6,46.5,18,45.8,17.2,45.8z"/>
	<path fill="#F46C39" stroke="#F46C39" stroke-width="0.8828" stroke-miterlimit="10" d="M62.4,51.5c-2.3,0-4.2-1.9-4.2-4.2
		c0-2.3,1.9-4.2,4.2-4.2c2.3,0,4.2,1.9,4.2,4.2C66.7,49.6,64.8,51.5,62.4,51.5z M62.4,45.8c-0.8,0-1.4,0.6-1.4,1.4
		c0,0.8,0.6,1.4,1.4,1.4c0.8,0,1.4-0.6,1.4-1.4C63.8,46.5,63.2,45.8,62.4,45.8z"/>
	<path fill="#F46C39" stroke="#F46C39" stroke-width="1.9064" stroke-miterlimit="10" d="M18.8,67.3c-3.9,0-7.1-3.2-7.1-7.1v-4.7
		h2.8v4.7c0,2.3,1.9,4.2,4.2,4.2s4.2-1.9,4.2-4.2v-4.7h2.8v4.7C25.9,64.1,22.7,67.3,18.8,67.3z"/>
	<path fill="#F46C39" stroke="#F46C39" stroke-width="1.9064" stroke-miterlimit="10" d="M61.2,67.3c-3.9,0-7.1-3.2-7.1-7.1v-4.7
		h2.8v4.7c0,2.3,1.9,4.2,4.2,4.2s4.2-1.9,4.2-4.2v-4.7h2.8v4.7C68.2,64.1,65.1,67.3,61.2,67.3z"/>
	<path fill="#F46C39" stroke="#F46C39" stroke-width="1.9064" stroke-miterlimit="10" d="M51.3,49.9H28.7c-0.8,0-1.4-0.6-1.4-1.4
		c0-0.8,0.6-1.4,1.4-1.4h22.6c0.8,0,1.4,0.6,1.4,1.4C52.7,49.3,52.1,49.9,51.3,49.9z"/>
	<path fill="#F46C39" stroke="#F46C39" stroke-width="1.9064" stroke-miterlimit="10" d="M51.3,21.7H28.7c-0.5,0-0.9-0.2-1.2-0.6
		c-0.3-0.4-0.3-0.9-0.1-1.3L33,5.6c0.2-0.5,0.7-0.9,1.3-0.9h11.3c0.6,0,1.1,0.4,1.3,0.9l5.6,14.1c0.2,0.4,0.1,0.9-0.1,1.3
		C52.2,21.4,51.8,21.7,51.3,21.7z M30.8,18.8h18.4L44.7,7.5h-9.4C35.3,7.5,30.8,18.8,30.8,18.8z"/>
	
		<path fill="#F46C39" stroke="#F46C39" stroke-width="1.0253" stroke-linecap="round" stroke-linejoin="round" stroke-miterlimit="10" d="
		M37.2,7.5H40v2.8h-2.8C37.2,10.4,37.2,7.5,37.2,7.5z"/>
	
		<path fill="#F46C39" stroke="#F46C39" stroke-width="1.0253" stroke-linecap="round" stroke-linejoin="round" stroke-miterlimit="10" d="
		M40,10.4h2.8v2.8H40V10.4z"/>
	
		<path fill="#F46C39" stroke="#F46C39" stroke-width="1.0253" stroke-linecap="round" stroke-linejoin="round" stroke-miterlimit="10" d="
		M37.2,13.2H40V16h-2.8V13.2z"/>
	
		<path fill="#F46C39" stroke="#F46C39" stroke-width="1.0253" stroke-linecap="round" stroke-linejoin="round" stroke-miterlimit="10" d="
		M40,16h2.8v2.8H40V16z"/>
</g>
</svg>
