<?xml version="1.0" encoding="utf-8"?>
<!-- Generator: Adobe Illustrator 18.1.1, SVG Export Plug-In . SVG Version: 6.00 Build 0)  -->
<svg version="1.1" id="Layer_1" xmlns="http://www.w3.org/2000/svg" xmlns:xlink="http://www.w3.org/1999/xlink" x="0px" y="0px"
	 viewBox="0 0 91 69" enable-background="new 0 0 91 69" xml:space="preserve">
<g>
	
		<polygon fill="none" stroke="#F46C39" stroke-width="5" stroke-linecap="round" stroke-linejoin="round" stroke-miterlimit="10" points="
		6.8,34.4 21.1,8 70.3,8 84.2,34.6 70.2,61 21.1,60.8 	"/>
	<circle fill="none" stroke="#F46C39" stroke-width="5" stroke-miterlimit="10" cx="45.5" cy="34.1" r="17.4"/>
	<g>
		<path fill="#F46C39" d="M45.8,31.9c1.4,0,2.6,1.2,2.6,2.6s-1.2,2.6-2.6,2.6c-1.4,0-2.6-1.2-2.6-2.6S44.4,31.9,45.8,31.9
			 M45.8,26.9c-4.2,0-7.6,3.4-7.6,7.6s3.4,7.6,7.6,7.6c4.2,0,7.6-3.4,7.6-7.6S50,26.9,45.8,26.9L45.8,26.9z"/>
	</g>
</g>
</svg>
